<?xml version="1.0" encoding="UTF-8" standalone="no"?>
<svg
   xmlns:dc="http://purl.org/dc/elements/1.1/"
   xmlns:cc="http://creativecommons.org/ns#"
   xmlns:rdf="http://www.w3.org/1999/02/22-rdf-syntax-ns#"
   xmlns:svg="http://www.w3.org/2000/svg"
   xmlns="http://www.w3.org/2000/svg"
   xmlns:sodipodi="http://sodipodi.sourceforge.net/DTD/sodipodi-0.dtd"
   xmlns:inkscape="http://www.inkscape.org/namespaces/inkscape"
   style="font-style:normal;font-weight:normal;font-size:12px;font-family:Dialog;color-interpolation:sRGB;fill:#000000;fill-opacity:1;stroke:#000000;stroke-width:1;stroke-linecap:square;stroke-linejoin:miter;stroke-miterlimit:10;stroke-dasharray:none;stroke-dashoffset:0;stroke-opacity:1;color-rendering:auto;image-rendering:auto;shape-rendering:auto;text-rendering:auto"
   width="320"
   height="250"
   version="1.1"
   id="svg212"
   sodipodi:docname="JM_input.svg"
   inkscape:version="0.92.2 2405546, 2018-03-11">
  <metadata
     id="metadata216">
    <rdf:RDF>
      <cc:Work
         rdf:about="">
        <dc:format>image/svg+xml</dc:format>
        <dc:type
           rdf:resource="http://purl.org/dc/dcmitype/StillImage" />
        <dc:title />
      </cc:Work>
    </rdf:RDF>
  </metadata>
  <sodipodi:namedview
     pagecolor="#ffffff"
     bordercolor="#666666"
     borderopacity="1"
     objecttolerance="10"
     gridtolerance="10"
     guidetolerance="10"
     inkscape:pageopacity="0"
     inkscape:pageshadow="2"
     inkscape:window-width="1920"
     inkscape:window-height="992"
     id="namedview214"
     showgrid="false"
     inkscape:zoom="1.6192308"
     inkscape:cx="228.13962"
     inkscape:cy="171.07427"
     inkscape:window-x="0"
     inkscape:window-y="1058"
     inkscape:window-maximized="1"
     inkscape:current-layer="layer2" />
  <!--Generated by the Batik Graphics2D SVG Generator-->
  <defs
     id="genericDefs" />
  <g
     inkscape:groupmode="layer"
     id="layer1"
     inkscape:label="Layer 1"
     style="display:inline"
     transform="translate(0,-10)">
    <path
       id="path5242"
       style="font-style:normal;font-weight:normal;font-size:12px;font-family:Dialog;color-interpolation:sRGB;fill:none;fill-opacity:1;fill-rule:evenodd;stroke:#c040c0;stroke-width:0.74126542;stroke-linecap:butt;stroke-linejoin:miter;stroke-miterlimit:10;stroke-dasharray:none;stroke-dashoffset:0;stroke-opacity:0.62745098;color-rendering:auto;image-rendering:auto;shape-rendering:auto;text-rendering:auto"
       d="M 289.758,12.823963 V 244.91604 M 260.95816,12.823963 V 244.91604 M 225.358,12.823963 V 244.91604 M 111.958,12.823963 V 244.91604"
       inkscape:connector-curvature="0"
       sodipodi:nodetypes="cccccccc" />
  </g>
  <g
     inkscape:groupmode="layer"
     id="layer3"
     inkscape:label="Layer 3"
     transform="translate(0,-10)"
     style="display:inline">
    <g
       id="g1035"
       style="font-style:normal;font-weight:normal;font-size:medium;font-family:Dialog;color-interpolation:sRGB;fill:#ffffff;fill-opacity:1;stroke:#ffffff;stroke-width:1;stroke-linecap:square;stroke-linejoin:miter;stroke-miterlimit:10;stroke-dasharray:none;stroke-dashoffset:0;stroke-opacity:1;color-rendering:auto;image-rendering:auto;shape-rendering:auto;text-rendering:auto"
       transform="matrix(0.66620256,0,0,0.66620256,-359.48645,-15.69755)" />
    <g
       id="g1041"
       style="font-style:normal;font-weight:normal;font-size:medium;font-family:Dialog;color-interpolation:sRGB;fill:#ffffff;fill-opacity:1;stroke:#ffffff;stroke-width:1;stroke-linecap:square;stroke-linejoin:miter;stroke-miterlimit:10;stroke-dasharray:none;stroke-dashoffset:0;stroke-opacity:1;color-rendering:optimizeSpeed;image-rendering:optimizeSpeed;shape-rendering:crispEdges;text-rendering:optimizeSpeed"
       transform="matrix(0.66620256,0,0,0.75722148,-19.48645,-10.042854)">
      <path
         id="path1039"
         d="M 73,175 H 507 V 31 H 73 Z"
         style="fill:none;stroke:#000000;stroke-opacity:1"
         inkscape:connector-curvature="0" />
    </g>
    <g
       id="g1061"
       style="font-style:normal;font-weight:normal;font-size:medium;font-family:Dialog;color-interpolation:sRGB;fill:#808080;fill-opacity:1;stroke:#808080;stroke-width:0.66670001;stroke-linecap:butt;stroke-linejoin:bevel;stroke-miterlimit:1;stroke-dasharray:1, 3;stroke-dashoffset:0;stroke-opacity:1;color-rendering:optimizeQuality;image-rendering:optimizeQuality;shape-rendering:auto;text-rendering:geometricPrecision"
       transform="matrix(0.66620256,0,0,0.75722148,-19.48645,-10.042854)">
      <line
         id="line1043"
         y1="175"
         x2="73"
         x1="73"
         style="fill:none"
         y2="31" />
      <line
         id="line1045"
         y1="175"
         x2="156.4615"
         x1="156.4615"
         style="fill:none"
         y2="31" />
      <line
         id="line1047"
         y1="175"
         x2="239.9231"
         x1="239.9231"
         style="fill:none"
         y2="31" />
      <line
         id="line1049"
         y1="175"
         x2="323.38461"
         x1="323.38461"
         style="fill:none"
         y2="31" />
      <line
         id="line1051"
         y1="175"
         x2="406.84619"
         x1="406.84619"
         style="fill:none"
         y2="31" />
      <line
         id="line1053"
         y1="175"
         x2="490.30771"
         x1="490.30771"
         style="fill:none"
         y2="31" />
      <line
         id="line1055"
         y1="175"
         x2="73"
         x1="507"
         style="fill:none"
         y2="175" />
      <line
         id="line1057"
         y1="103"
         x2="73"
         x1="507"
         style="fill:none"
         y2="103" />
      <line
         id="line1059"
         y1="31"
         x2="73"
         x1="507"
         style="fill:none"
         y2="31" />
    </g>
    <g
       id="g1077"
       style="font-style:normal;font-weight:normal;font-size:medium;font-family:Dialog;color-interpolation:sRGB;fill:#262626;fill-opacity:1;stroke:#262626;stroke-width:0.66670001;stroke-linecap:square;stroke-linejoin:round;stroke-miterlimit:10;stroke-dasharray:none;stroke-dashoffset:0;stroke-opacity:1;color-rendering:optimizeQuality;image-rendering:optimizeQuality;shape-rendering:auto;text-rendering:geometricPrecision"
       transform="matrix(0.66620256,0,0,0.75722148,-19.48645,-10.042854)">
      <line
         id="line1065"
         y1="175"
         x2="73"
         x1="73"
         style="fill:none"
         y2="170.66" />
      <line
         id="line1067"
         y1="175"
         x2="156.4615"
         x1="156.4615"
         style="fill:none"
         y2="170.66" />
      <line
         id="line1069"
         y1="175"
         x2="239.9231"
         x1="239.9231"
         style="fill:none"
         y2="170.66" />
      <line
         id="line1071"
         y1="175"
         x2="323.38461"
         x1="323.38461"
         style="fill:none"
         y2="170.66" />
      <line
         id="line1073"
         y1="175"
         x2="406.84619"
         x1="406.84619"
         style="fill:none"
         y2="170.66" />
      <line
         id="line1075"
         y1="175"
         x2="490.30771"
         x1="490.30771"
         style="fill:none"
         y2="170.66" />
    </g>
    <text
       x="29.523428"
       xml:space="preserve"
       y="133.10159"
       style="font-style:normal;font-weight:normal;font-size:8px;font-family:SansSerif;text-align:center;text-anchor:middle;color-interpolation:sRGB;fill:#262626;fill-opacity:1;stroke:none;stroke-width:0.66620255;stroke-linecap:square;stroke-linejoin:miter;stroke-miterlimit:10;stroke-dasharray:none;stroke-dashoffset:0;stroke-opacity:1;color-rendering:optimizeQuality;image-rendering:optimizeQuality;shape-rendering:auto;text-rendering:geometricPrecision"
       id="text1079">0</text>
    <text
       x="84.781937"
       xml:space="preserve"
       y="133.10159"
       style="font-style:normal;font-weight:normal;font-size:8px;font-family:SansSerif;text-align:center;text-anchor:middle;color-interpolation:sRGB;fill:#262626;fill-opacity:1;stroke:none;stroke-width:0.66620255;stroke-linecap:square;stroke-linejoin:miter;stroke-miterlimit:10;stroke-dasharray:none;stroke-dashoffset:0;stroke-opacity:1;color-rendering:optimizeQuality;image-rendering:optimizeQuality;shape-rendering:auto;text-rendering:geometricPrecision"
       id="text1083">5</text>
    <text
       x="140.38612"
       xml:space="preserve"
       y="133.10159"
       style="font-style:normal;font-weight:normal;font-size:8px;font-family:SansSerif;text-align:center;text-anchor:middle;color-interpolation:sRGB;fill:#262626;fill-opacity:1;stroke:none;stroke-width:0.66620255;stroke-linecap:square;stroke-linejoin:miter;stroke-miterlimit:10;stroke-dasharray:none;stroke-dashoffset:0;stroke-opacity:1;color-rendering:optimizeQuality;image-rendering:optimizeQuality;shape-rendering:auto;text-rendering:geometricPrecision"
       id="text1087">10</text>
    <text
       x="195.76443"
       xml:space="preserve"
       y="133.10159"
       style="font-style:normal;font-weight:normal;font-size:8px;font-family:SansSerif;text-align:center;text-anchor:middle;color-interpolation:sRGB;fill:#262626;fill-opacity:1;stroke:none;stroke-width:0.66620255;stroke-linecap:square;stroke-linejoin:miter;stroke-miterlimit:10;stroke-dasharray:none;stroke-dashoffset:0;stroke-opacity:1;color-rendering:optimizeQuality;image-rendering:optimizeQuality;shape-rendering:auto;text-rendering:geometricPrecision"
       id="text1091">15</text>
    <text
       x="251.98135"
       xml:space="preserve"
       y="133.10159"
       style="font-style:normal;font-weight:normal;font-size:8px;font-family:SansSerif;text-align:center;text-anchor:middle;color-interpolation:sRGB;fill:#262626;fill-opacity:1;stroke:none;stroke-width:0.66620255;stroke-linecap:square;stroke-linejoin:miter;stroke-miterlimit:10;stroke-dasharray:none;stroke-dashoffset:0;stroke-opacity:1;color-rendering:optimizeQuality;image-rendering:optimizeQuality;shape-rendering:auto;text-rendering:geometricPrecision"
       id="text1095">20</text>
    <text
       x="307.35965"
       xml:space="preserve"
       y="133.10159"
       style="font-style:normal;font-weight:normal;font-size:8px;font-family:SansSerif;text-align:center;text-anchor:middle;color-interpolation:sRGB;fill:#262626;fill-opacity:1;stroke:none;stroke-width:0.66620255;stroke-linecap:square;stroke-linejoin:miter;stroke-miterlimit:10;stroke-dasharray:none;stroke-dashoffset:0;stroke-opacity:1;color-rendering:optimizeQuality;image-rendering:optimizeQuality;shape-rendering:auto;text-rendering:geometricPrecision"
       id="text1099">25</text>
    <g
       id="g1111"
       style="font-style:normal;font-weight:normal;font-size:medium;font-family:Dialog;color-interpolation:sRGB;fill:#262626;fill-opacity:1;stroke:#262626;stroke-width:0.66670001;stroke-linecap:square;stroke-linejoin:round;stroke-miterlimit:10;stroke-dasharray:none;stroke-dashoffset:0;stroke-opacity:1;color-rendering:optimizeQuality;image-rendering:optimizeQuality;shape-rendering:auto;text-rendering:geometricPrecision"
       transform="matrix(0.66620256,0,0,0.75722148,-19.48645,-10.042854)">
      <line
         id="line1105"
         y1="175"
         x2="77.339996"
         x1="73"
         style="fill:none"
         y2="175" />
      <line
         id="line1107"
         y1="103"
         x2="77.339996"
         x1="73"
         style="fill:none"
         y2="103" />
      <line
         id="line1109"
         y1="31"
         x2="77.339996"
         x1="73"
         style="fill:none"
         y2="31" />
    </g>
    <text
       x="27.628693"
       xml:space="preserve"
       y="121.8858"
       style="font-style:normal;font-variant:normal;font-weight:normal;font-stretch:normal;font-size:8px;font-family:sans-serif;-inkscape-font-specification:sans-serif;text-align:end;text-anchor:end;color-interpolation:sRGB;fill:#262626;fill-opacity:1;stroke:none;stroke-width:0.66620255;stroke-linecap:square;stroke-linejoin:miter;stroke-miterlimit:10;stroke-dasharray:none;stroke-dashoffset:0;stroke-opacity:1;color-rendering:optimizeQuality;image-rendering:optimizeQuality;shape-rendering:auto;text-rendering:geometricPrecision"
       id="text1113">0</text>
    <text
       x="27.37088"
       xml:space="preserve"
       y="71.91922"
       style="font-style:normal;font-variant:normal;font-weight:normal;font-stretch:normal;font-size:8px;font-family:sans-serif;-inkscape-font-specification:sans-serif;text-align:end;text-anchor:end;color-interpolation:sRGB;fill:#262626;fill-opacity:1;stroke:none;stroke-width:0.66620255;stroke-linecap:square;stroke-linejoin:miter;stroke-miterlimit:10;stroke-dasharray:none;stroke-dashoffset:0;stroke-opacity:1;color-rendering:optimizeQuality;image-rendering:optimizeQuality;shape-rendering:auto;text-rendering:geometricPrecision"
       id="text1117">5</text>
    <text
       x="27.04126"
       xml:space="preserve"
       y="17.952641"
       style="font-style:normal;font-variant:normal;font-weight:normal;font-stretch:normal;font-size:8px;font-family:sans-serif;-inkscape-font-specification:sans-serif;text-align:end;text-anchor:end;color-interpolation:sRGB;fill:#262626;fill-opacity:1;stroke:none;stroke-width:0.66620255;stroke-linecap:square;stroke-linejoin:miter;stroke-miterlimit:10;stroke-dasharray:none;stroke-dashoffset:0;stroke-opacity:1;color-rendering:optimizeQuality;image-rendering:optimizeQuality;shape-rendering:auto;text-rendering:geometricPrecision"
       id="text1121">10</text>
    <g
       id="g1129"
       style="font-style:normal;font-weight:normal;font-size:medium;font-family:Dialog;color-interpolation:sRGB;fill:#0072bd;fill-opacity:1;stroke:#0072bd;stroke-width:0.66670001;stroke-linecap:butt;stroke-linejoin:round;stroke-miterlimit:10;stroke-dasharray:none;stroke-dashoffset:0;stroke-opacity:1;color-rendering:optimizeQuality;image-rendering:optimizeQuality;shape-rendering:auto;text-rendering:geometricPrecision"
       transform="matrix(0.66620256,0,0,0.75722148,-19.48645,-10.042854)">
      <path
         id="path1125"
         style="opacity:1;vector-effect:none;fill:none;fill-opacity:1;fill-rule:evenodd;stroke:#0072bd;stroke-width:1.35621727;stroke-linecap:butt;stroke-linejoin:miter;stroke-miterlimit:10;stroke-dasharray:none;stroke-dashoffset:0;stroke-opacity:1"
         d="m 73,77.8138 3.3385,-2.0604 3.3384,-5.8161 3.3385,-3.4414 3.3384,2.7947 3.3385,-11.7704 3.3385,-0.0175 3.3384,-4.8064 3.3385,16.4538 3.3385,0.2069 3.3384,-0.1319 3.3385,-12.2534 3.3384,11.2966 3.3385,-9.4413 3.3385,9.1889 3.3384,-3.0084 3.3385,2.6689 3.3384,5.9305 3.3385,2.5933 3.3385,-17.1411 3.3384,12.2016 3.3385,-6.077 3.3385,4.8963 3.3384,-4.3806 3.3385,5.2441 3.3384,-10.463 3.3385,7.1181 3.3385,-4.1616 3.3384,7.0271 3.3385,-7.2708 3.3384,16.6257 3.3385,-13.3986 3.3385,7.1635 3.3384,-5.308 3.3385,6.2842 3.3385,-14.123 3.3384,10.0445 3.3385,-11.9146 3.3384,7.6253 3.3385,-1.0159 3.3385,8.386 3.3384,-1.5449 3.3385,6.5882 3.3384,-4.694 3.3385,7.8561 3.3385,-4.6135 3.3384,5.7704 3.3385,-10.9728 3.3385,4.6806 3.3384,-10.7191 3.3385,7.9815 3.3384,-5.8165 3.3385,9.151 3.3385,-8.5519 3.3384,7.8377 3.3385,-3.0309 3.3385,5.8518 3.3384,-11.1546 3.3385,8.1643 3.3384,-4.9993 3.3385,1.5552 3.3384,1.7334 3.3385,9.8975 3.3385,-20.0743 3.3384,2.0975 3.3385,5.0344 3.3385,8.434 3.3384,-5.4664 3.3385,9.2639 3.3385,-21.7058 3.3384,10.9902 3.3385,1.8447 3.3384,9.2937 3.3385,-14.2572 3.3384,5.5555 3.3385,-6.153 3.3385,8.1481 3.3384,-4.9416 3.3385,8.0801 3.3385,-11.0282 3.3384,4.0494 3.3385,-4.9124 3.3384,5.9473 3.3385,-1.095 3.3385,8.9162 3.3384,1.4973 3.3385,7.9604 3.3384,-16.5365 3.3385,10.4491 3.3385,-1.4342 3.3384,5.9707 3.3385,5.5044 3.3385,-2.9641 3.3384,-8.3358 3.3385,-8.936 3.3384,-4.091 3.3385,9.5778 3.3384,5.4906 3.3386,0.8427 3.3384,-1.3844 3.3385,3.9993 3.3384,-5.3525 3.3385,1.9095 3.3384,-13.8118 3.3385,2.0512 3.3385,-10.3068 3.3384,10.8151 3.3385,3.3893 3.3385,7.3508 3.3384,-0.2143 3.3385,-1.7597 3.3384,-7.2609 3.3385,-6.9332 3.3385,-0.1466 3.3384,4.6634 3.3385,-1.0229 3.3385,2.2896 3.3384,-10.5228 3.3385,4.5378 3.3384,-2.2847 3.3385,8.9593 3.3385,-7.6227 3.3384,6.7123 3.3385,-2.3412 3.3384,5.2895 3.3385,-4.8108 3.3385,6.0938 3.3384,-6.5341 3.3385,5.2571 3.3384,-2.5768 L 507,79.29"
         inkscape:connector-curvature="0" />
      <path
         id="path1127"
         style="fill:none;fill-rule:evenodd;stroke:#ff0000"
         d="m 73,59.8 h 3.3385 3.3384 3.3385 3.3384 3.3385 3.3385 3.3384 3.3385 3.3385 3.3384 3.3385 3.3384 3.3385 3.3385 3.3384 3.3385 3.3384 3.3385 3.3385 3.3384 3.3385 3.3385 3.3384 3.3385 3.3384 3.3385 3.3385 3.3384 3.3385 3.3384 3.3385 3.3385 3.3384 3.3385 3.3385 3.3384 3.3385 3.3384 3.3385 3.3385 3.3384 3.3385 3.3384 3.3385 3.3385 3.3384 3.3385 3.3385 3.3384 3.3385 3.3384 3.3385 3.3385 3.3384 3.3385 3.3385 3.3384 3.3385 3.3384 3.3385 3.3384 3.3385 3.3385 3.3384 3.3385 3.3385 3.3384 3.3385 3.3385 3.3384 3.3385 3.3384 3.3385 3.3384 3.3385 3.3385 3.3384 3.3385 3.3385 3.3384 3.3385 3.3384 3.3385 3.3385 3.3384 3.3385 3.3384 3.3385 3.3385 3.3384 3.3385 3.3385 3.3384 3.3385 3.3384 3.3385 3.3384 3.3386 3.3384 3.3385 3.3384 3.3385 3.3384 3.3385 3.3385 3.3384 3.3385 3.3385 3.3384 3.3385 3.3384 3.3385 3.3385 3.3384 3.3385 3.3385 3.3384 3.3385 3.3384 3.3385 3.3385 3.3384 3.3385 3.3384 3.3385 3.3385 3.3384 3.3385 3.3384 H 507"
         inkscape:connector-curvature="0" />
    </g>
    <g
       id="g1133"
       style="font-style:normal;font-weight:normal;font-size:medium;font-family:Dialog;color-interpolation:sRGB;fill:#ffffff;fill-opacity:1;stroke:#ffffff;stroke-width:1;stroke-linecap:square;stroke-linejoin:miter;stroke-miterlimit:10;stroke-dasharray:none;stroke-dashoffset:0;stroke-opacity:1;color-rendering:optimizeSpeed;image-rendering:optimizeSpeed;shape-rendering:crispEdges;text-rendering:optimizeSpeed"
       transform="matrix(0.66620256,0,0,0.66620256,-19.48645,-9.69755)">
      <path
         id="path1131"
         d="M 73,374 H 507 V 231 H 73 Z"
         style="fill:none;stroke:#000000;stroke-opacity:1"
         inkscape:connector-curvature="0" />
    </g>
    <g
       id="g1155"
       style="font-style:normal;font-weight:normal;font-size:medium;font-family:Dialog;color-interpolation:sRGB;fill:#808080;fill-opacity:1;stroke:#808080;stroke-width:0.66670001;stroke-linecap:butt;stroke-linejoin:bevel;stroke-miterlimit:1;stroke-dasharray:1, 3;stroke-dashoffset:0;stroke-opacity:1;color-rendering:optimizeQuality;image-rendering:optimizeQuality;shape-rendering:auto;text-rendering:geometricPrecision"
       transform="matrix(0.66620256,0,0,0.66620256,-19.48645,-9.69755)">
      <line
         id="line1135"
         y1="374"
         x2="73"
         x1="73"
         style="fill:none"
         y2="231" />
      <line
         id="line1137"
         y1="374"
         x2="156.4615"
         x1="156.4615"
         style="fill:none"
         y2="231" />
      <line
         id="line1139"
         y1="374"
         x2="239.9231"
         x1="239.9231"
         style="fill:none"
         y2="231" />
      <line
         id="line1141"
         y1="374"
         x2="323.38461"
         x1="323.38461"
         style="fill:none"
         y2="231" />
      <line
         id="line1143"
         y1="374"
         x2="406.84619"
         x1="406.84619"
         style="fill:none"
         y2="231" />
      <line
         id="line1145"
         y1="374"
         x2="490.30771"
         x1="490.30771"
         style="fill:none"
         y2="231" />
      <line
         id="line1147"
         y1="348.77911"
         x2="73"
         x1="507"
         style="fill:none"
         y2="348.77911" />
      <line
         id="line1149"
         y1="309.51941"
         x2="73"
         x1="507"
         style="fill:none"
         y2="309.51941" />
      <line
         id="line1151"
         y1="270.2597"
         x2="73"
         x1="507"
         style="fill:none"
         y2="270.2597" />
      <line
         id="line1153"
         y1="231"
         x2="73"
         x1="507"
         style="fill:none"
         y2="231" />
    </g>
    <g
       id="g1171"
       style="font-style:normal;font-weight:normal;font-size:medium;font-family:Dialog;color-interpolation:sRGB;fill:#262626;fill-opacity:1;stroke:#262626;stroke-width:0.66670001;stroke-linecap:square;stroke-linejoin:round;stroke-miterlimit:10;stroke-dasharray:none;stroke-dashoffset:0;stroke-opacity:1;color-rendering:optimizeQuality;image-rendering:optimizeQuality;shape-rendering:auto;text-rendering:geometricPrecision"
       transform="matrix(0.66620256,0,0,0.66620256,-19.48645,-9.69755)">
      <line
         id="line1159"
         y1="374"
         x2="73"
         x1="73"
         style="fill:none"
         y2="369.66" />
      <line
         id="line1161"
         y1="374"
         x2="156.4615"
         x1="156.4615"
         style="fill:none"
         y2="369.66" />
      <line
         id="line1163"
         y1="374"
         x2="239.9231"
         x1="239.9231"
         style="fill:none"
         y2="369.66" />
      <line
         id="line1165"
         y1="374"
         x2="323.38461"
         x1="323.38461"
         style="fill:none"
         y2="369.66" />
      <line
         id="line1167"
         y1="374"
         x2="406.84619"
         x1="406.84619"
         style="fill:none"
         y2="369.66" />
      <line
         id="line1169"
         y1="374"
         x2="490.30771"
         x1="490.30771"
         style="fill:none"
         y2="369.66" />
    </g>
    <text
       x="29.523428"
       xml:space="preserve"
       y="247.6759"
       style="font-style:normal;font-weight:normal;font-size:8px;font-family:SansSerif;text-align:center;text-anchor:middle;color-interpolation:sRGB;fill:#262626;fill-opacity:1;stroke:none;stroke-width:0.66620255;stroke-linecap:square;stroke-linejoin:miter;stroke-miterlimit:10;stroke-dasharray:none;stroke-dashoffset:0;stroke-opacity:1;color-rendering:optimizeQuality;image-rendering:optimizeQuality;shape-rendering:auto;text-rendering:geometricPrecision"
       id="text1173">0</text>
    <text
       x="84.781937"
       xml:space="preserve"
       y="247.6759"
       style="font-style:normal;font-weight:normal;font-size:8px;font-family:SansSerif;text-align:center;text-anchor:middle;color-interpolation:sRGB;fill:#262626;fill-opacity:1;stroke:none;stroke-width:0.66620255;stroke-linecap:square;stroke-linejoin:miter;stroke-miterlimit:10;stroke-dasharray:none;stroke-dashoffset:0;stroke-opacity:1;color-rendering:optimizeQuality;image-rendering:optimizeQuality;shape-rendering:auto;text-rendering:geometricPrecision"
       id="text1177">5</text>
    <text
       x="140.38612"
       xml:space="preserve"
       y="247.6759"
       style="font-style:normal;font-weight:normal;font-size:8px;font-family:SansSerif;text-align:center;text-anchor:middle;color-interpolation:sRGB;fill:#262626;fill-opacity:1;stroke:none;stroke-width:0.66620255;stroke-linecap:square;stroke-linejoin:miter;stroke-miterlimit:10;stroke-dasharray:none;stroke-dashoffset:0;stroke-opacity:1;color-rendering:optimizeQuality;image-rendering:optimizeQuality;shape-rendering:auto;text-rendering:geometricPrecision"
       id="text1181">10</text>
    <text
       x="195.76443"
       xml:space="preserve"
       y="247.6759"
       style="font-style:normal;font-weight:normal;font-size:8px;font-family:SansSerif;text-align:center;text-anchor:middle;color-interpolation:sRGB;fill:#262626;fill-opacity:1;stroke:none;stroke-width:0.66620255;stroke-linecap:square;stroke-linejoin:miter;stroke-miterlimit:10;stroke-dasharray:none;stroke-dashoffset:0;stroke-opacity:1;color-rendering:optimizeQuality;image-rendering:optimizeQuality;shape-rendering:auto;text-rendering:geometricPrecision"
       id="text1185">15</text>
    <text
       x="251.98135"
       xml:space="preserve"
       y="247.6759"
       style="font-style:normal;font-weight:normal;font-size:8px;font-family:SansSerif;text-align:center;text-anchor:middle;color-interpolation:sRGB;fill:#262626;fill-opacity:1;stroke:none;stroke-width:0.66620255;stroke-linecap:square;stroke-linejoin:miter;stroke-miterlimit:10;stroke-dasharray:none;stroke-dashoffset:0;stroke-opacity:1;color-rendering:optimizeQuality;image-rendering:optimizeQuality;shape-rendering:auto;text-rendering:geometricPrecision"
       id="text1189">20</text>
    <text
       x="307.35965"
       xml:space="preserve"
       y="247.6759"
       style="font-style:normal;font-weight:normal;font-size:8px;font-family:SansSerif;text-align:center;text-anchor:middle;color-interpolation:sRGB;fill:#262626;fill-opacity:1;stroke:none;stroke-width:0.66620255;stroke-linecap:square;stroke-linejoin:miter;stroke-miterlimit:10;stroke-dasharray:none;stroke-dashoffset:0;stroke-opacity:1;color-rendering:optimizeQuality;image-rendering:optimizeQuality;shape-rendering:auto;text-rendering:geometricPrecision"
       id="text1193">25</text>
    <g
       id="g1207"
       style="font-style:normal;font-weight:normal;font-size:medium;font-family:Dialog;color-interpolation:sRGB;fill:#262626;fill-opacity:1;stroke:#262626;stroke-width:0.66670001;stroke-linecap:square;stroke-linejoin:round;stroke-miterlimit:10;stroke-dasharray:none;stroke-dashoffset:0;stroke-opacity:1;color-rendering:optimizeQuality;image-rendering:optimizeQuality;shape-rendering:auto;text-rendering:geometricPrecision"
       transform="matrix(0.66620256,0,0,0.66620256,-19.48645,-9.69755)">
      <line
         id="line1199"
         y1="348.77911"
         x2="77.339996"
         x1="73"
         style="fill:none"
         y2="348.77911" />
      <line
         id="line1201"
         y1="309.51941"
         x2="77.339996"
         x1="73"
         style="fill:none"
         y2="309.51941" />
      <line
         id="line1203"
         y1="270.2597"
         x2="77.339996"
         x1="73"
         style="fill:none"
         y2="270.2597" />
      <line
         id="line1205"
         y1="231"
         x2="77.339996"
         x1="73"
         style="fill:none"
         y2="231" />
    </g>
    <text
       x="26.803253"
       xml:space="preserve"
       y="225.6579"
       style="font-style:normal;font-variant:normal;font-weight:normal;font-stretch:normal;font-size:8px;font-family:sans-serif;-inkscape-font-specification:sans-serif;text-align:end;text-anchor:end;color-interpolation:sRGB;fill:#262626;fill-opacity:1;stroke:none;stroke-width:0.66620255;stroke-linecap:square;stroke-linejoin:miter;stroke-miterlimit:10;stroke-dasharray:none;stroke-dashoffset:0;stroke-opacity:1;color-rendering:optimizeQuality;image-rendering:optimizeQuality;shape-rendering:auto;text-rendering:geometricPrecision"
       id="text1209">-0.5</text>
    <text
       x="27.628693"
       xml:space="preserve"
       y="199.50298"
       style="font-style:normal;font-variant:normal;font-weight:normal;font-stretch:normal;font-size:8px;font-family:sans-serif;-inkscape-font-specification:sans-serif;text-align:end;text-anchor:end;color-interpolation:sRGB;fill:#262626;fill-opacity:1;stroke:none;stroke-width:0.66620255;stroke-linecap:square;stroke-linejoin:miter;stroke-miterlimit:10;stroke-dasharray:none;stroke-dashoffset:0;stroke-opacity:1;color-rendering:optimizeQuality;image-rendering:optimizeQuality;shape-rendering:auto;text-rendering:geometricPrecision"
       id="text1213">0</text>
    <text
       x="27.106934"
       xml:space="preserve"
       y="173.34807"
       style="font-style:normal;font-variant:normal;font-weight:normal;font-stretch:normal;font-size:8px;font-family:sans-serif;-inkscape-font-specification:sans-serif;text-align:end;text-anchor:end;color-interpolation:sRGB;fill:#262626;fill-opacity:1;stroke:none;stroke-width:0.66620255;stroke-linecap:square;stroke-linejoin:miter;stroke-miterlimit:10;stroke-dasharray:none;stroke-dashoffset:0;stroke-opacity:1;color-rendering:optimizeQuality;image-rendering:optimizeQuality;shape-rendering:auto;text-rendering:geometricPrecision"
       id="text1217">0.5</text>
    <text
       x="27.070099"
       xml:space="preserve"
       y="147.19315"
       style="font-style:normal;font-variant:normal;font-weight:normal;font-stretch:normal;font-size:8px;font-family:sans-serif;-inkscape-font-specification:sans-serif;text-align:end;text-anchor:end;color-interpolation:sRGB;fill:#262626;fill-opacity:1;stroke:none;stroke-width:0.66620255;stroke-linecap:square;stroke-linejoin:miter;stroke-miterlimit:10;stroke-dasharray:none;stroke-dashoffset:0;stroke-opacity:1;color-rendering:optimizeQuality;image-rendering:optimizeQuality;shape-rendering:auto;text-rendering:geometricPrecision"
       id="text1221">1</text>
    <g
       id="g1229"
       style="font-style:normal;font-weight:normal;font-size:medium;font-family:Dialog;color-interpolation:sRGB;fill:#0072bd;fill-opacity:1;stroke:#0072bd;stroke-width:0.66670001;stroke-linecap:butt;stroke-linejoin:round;stroke-miterlimit:10;stroke-dasharray:none;stroke-dashoffset:0;stroke-opacity:1;color-rendering:optimizeQuality;image-rendering:optimizeQuality;shape-rendering:auto;text-rendering:geometricPrecision"
       transform="matrix(0.66620256,0,0,0.66620256,-19.48645,-9.69755)">
      <path
         id="path1225"
         style="opacity:1;vector-effect:none;fill:none;fill-opacity:1;fill-rule:evenodd;stroke:#0072bd;stroke-width:1.50104499;stroke-linecap:butt;stroke-linejoin:miter;stroke-miterlimit:10;stroke-dasharray:none;stroke-dashoffset:0;stroke-opacity:1"
         d="m 73,309.5778 3.3385,0.0394 3.3384,0.0492 3.3385,0.0499 3.3384,-1.2288 3.3385,-2.3828 3.3385,1.1311 3.3384,3.2561 3.3385,0.262 3.3385,-3.3697 3.3384,-0.282 3.3385,-2.7529 3.3384,-0.688 3.3385,7.4048 3.3385,0.089 3.3384,-2.2739 3.3385,1.96 3.3384,4.454 3.3385,-2.2091 3.3385,2.5558 3.3384,-2.1814 3.3385,-4.8534 3.3385,0.9175 3.3384,1.9524 3.3385,-1.9855 3.3384,2.8229 3.3385,-1.7008 3.3385,1.9996 3.3384,-1.563 3.3385,0.3208 3.3384,-2.7331 3.3385,2.0689 3.3385,-1.7423 3.3384,-9.631 3.3385,-5.4745 3.3385,2.0045 3.3384,-16.847 3.3385,-26.1885 3.3384,-10.472 3.3385,-1.8969 3.3385,0.1476 3.3384,-0.0284 3.3385,0.419 3.3384,0.0802 3.3385,0.005 3.3385,0.2064 3.3384,-0.005 3.3385,1.0055 3.3385,-1.4051 3.3384,0.2112 3.3385,0.2375 3.3384,0.3024 3.3385,-0.4331 3.3385,1.1678 3.3384,-0.0796 3.3385,0.1559 3.3385,-1.6575 3.3384,0.6985 3.3385,-0.5265 3.3384,-1.7349 3.3385,0.1903 3.3384,2.3149 3.3385,-3.6855 3.3385,-1.6809 3.3384,0.3024 3.3385,-0.8422 3.3385,0.3969 3.3384,2.8693 3.3385,-1.9341 3.3385,3.4079 3.3384,-3.9263 3.3385,-2.1283 3.3384,-1.1632 3.3385,-0.6189 3.3384,-0.4263 3.3385,0.0665 3.3385,-0.0916 3.3384,0.1486 3.3385,-0.347 3.3385,-0.2235 3.3384,0.009 3.3385,-0.3662 3.3384,0.6408 3.3385,-0.4523 3.3385,-0.6416 3.3384,-0.0454 3.3385,0.1668 3.3384,9.337 3.3385,64.1174 3.3385,23.0049 3.3384,4.7283 3.3385,4.7989 3.3385,0.7069 3.3384,1.0094 3.3385,0.9495 3.3384,6.7705 3.3385,0.8489 3.3384,0.0507 3.3386,2.3741 3.3384,1.7688 3.3385,0.7094 3.3384,-0.6141 3.3385,-0.1936 3.3384,-1.2616 3.3385,-10.522 3.3385,-7.1951 3.3384,-29.1993 3.3385,-27.829 3.3385,-4.1732 3.3384,-2.3139 3.3385,-0.4992 3.3384,0.0501 3.3385,0.109 3.3385,-0.3927 3.3384,0.002 3.3385,0.008 3.3385,0.0477 3.3384,5.0845 3.3385,12.8673 3.3384,17.6214 3.3385,11.4053 3.3385,4.7955 3.3384,-2.4204 3.3385,1.5008 3.3384,1.1539 3.3385,4.1893 3.3385,6.9748 3.3384,1.6226 3.3385,4.3992 3.3384,0.9565 3.3385,0.7178"
         inkscape:connector-curvature="0" />
      <path
         id="path1227"
         style="fill:none;fill-rule:evenodd;stroke:#d95319;stroke-width:1.50104499;stroke-miterlimit:10;stroke-dasharray:none"
         d="m 73,369.6879 3.3385,-0.007 3.3384,-0.009 3.3385,-0.01 3.3384,0.2443 3.3385,0.2726 3.3385,0.0155 3.3384,-0.178 3.3385,-0.0526 3.3385,0.6694 3.3384,0.0165 3.3385,0.1657 3.3384,-0.0263 3.3385,0.3847 3.3385,-0.0181 3.3384,0.4144 3.3385,-0.2052 3.3384,-0.785 3.3385,0.7144 3.3385,-0.5783 3.3384,0.7047 3.3385,1.122 3.3385,-0.0648 3.3384,-0.2269 3.3385,0.3565 3.3384,-0.2937 3.3385,0.3578 3.3385,-0.2749 3.3384,0.3391 3.3385,-0.0478 3.3384,0.4559 3.3385,-0.1268 3.3385,0.2631 3.3384,0.7204 3.3385,-1.5175 3.3385,0.867 3.3384,-5.523 3.3385,-26.421 3.3384,-31.6315 3.3385,-22.0999 3.3385,-1.927 3.3384,0.3527 3.3385,-5.4271 3.3384,-0.5257 3.3385,-0.0337 3.3385,-1.3099 3.3384,0.0262 3.3385,-5.4559 3.3385,4.3329 3.3384,-1.1198 3.3385,-1.0054 3.3384,-1.1376 3.3385,1.4245 3.3385,-4.7161 3.3384,0.1784 3.3385,-0.3754 3.3385,3.8143 3.3384,-2.8666 3.3385,1.3039 3.3384,5.4697 3.3385,-3.6767 3.3384,-8.8066 3.3385,4.6444 3.3385,4.5319 3.3384,-2.2378 3.3385,2.8726 3.3385,-3.7466 3.3384,-7.9786 3.3385,1.9725 3.3385,-5.0437 3.3384,3.1551 3.3385,2.9103 3.3384,2.4234 3.3385,2.0448 3.3384,2.4488 3.3385,-2.1639 3.3385,0.4512 3.3384,-0.9358 3.3385,1.4333 3.3385,1.7511 3.3384,-0.4539 3.3385,4.7468 3.3384,2.6071 3.3385,-1.2894 3.3385,-2.6971 3.3384,-0.9695 3.3385,-8.2068 3.3384,-11.9365 3.3385,-21.5388 3.3385,3.4926 3.3384,0.8484 3.3385,0.9008 3.3385,0.1438 3.3384,0.2036 3.3385,0.1944 3.3384,1.4084 3.3385,0.2281 3.3384,0.0136 3.3386,0.6291 3.3384,0.5248 3.3385,0.2266 3.3384,-0.2005 3.3385,-0.0597 3.3384,-0.3816 3.3385,-2.8251 3.3385,-0.016 3.3384,4.503 3.3385,28.4739 3.3385,13.7095 3.3384,12.1809 3.3385,7.5001 3.3384,4.4463 3.3385,1.7385 3.3385,-4.7233 3.3384,-0.963 3.3385,-0.4515 3.3385,-1.6101 3.3384,-72.4125 3.3385,-0.9468 3.3384,-0.7644 3.3385,1.6422 3.3385,1.2541 3.3384,-0.7641 3.3385,0.4006 3.3384,0.343 3.3385,1.3209 3.3385,2.8438 3.3384,0.9568 3.3385,2.7243 3.3384,0.755 3.3385,0.5805"
         inkscape:connector-curvature="0" />
    </g>
    <rect
       style="color:#000000;clip-rule:nonzero;display:inline;overflow:visible;visibility:visible;opacity:1;isolation:auto;mix-blend-mode:normal;color-interpolation:sRGB;color-interpolation-filters:sRGB;solid-color:#000000;solid-opacity:1;vector-effect:none;fill:#ffffff;fill-opacity:1;fill-rule:nonzero;stroke:#000000;stroke-width:0.5;stroke-linecap:butt;stroke-linejoin:miter;stroke-miterlimit:10;stroke-dasharray:none;stroke-dashoffset:0;stroke-opacity:1;marker:none;marker-start:none;marker-mid:none;marker-end:none;color-rendering:auto;image-rendering:auto;shape-rendering:auto;text-rendering:auto;enable-background:accumulate"
       id="rect1756"
       width="55.273159"
       height="32.11401"
       x="36.745846"
       y="149.1449"
       ry="0.22411899" />
  </g>
  <g
     inkscape:groupmode="layer"
     id="layer2"
     inkscape:label="Layer 2"
     style="display:inline"
     transform="translate(0,-10)">
    <text
       xml:space="preserve"
       style="font-style:normal;font-variant:normal;font-weight:normal;font-stretch:normal;font-size:10px;line-height:125%;font-family:sans-serif;-inkscape-font-specification:sans-serif;text-align:center;letter-spacing:0px;word-spacing:0px;writing-mode:lr-tb;text-anchor:middle;color-interpolation:sRGB;fill:#000000;fill-opacity:1;stroke:none;stroke-width:1px;stroke-linecap:butt;stroke-linejoin:miter;stroke-miterlimit:10;stroke-dasharray:none;stroke-dashoffset:0;stroke-opacity:1;color-rendering:auto;image-rendering:auto;shape-rendering:auto;text-rendering:auto"
       x="178.64899"
       y="258.58163"
       id="text4731"><tspan
         sodipodi:role="line"
         id="tspan4729"
         x="178.64899"
         y="258.58163">Time (sec)</tspan></text>
    <g
       style="font-style:normal;font-weight:normal;font-size:12px;font-family:Dialog;color-interpolation:sRGB;fill:#000000;fill-opacity:1;stroke:#000000;stroke-width:1;stroke-linecap:square;stroke-linejoin:miter;stroke-miterlimit:10;stroke-dasharray:none;stroke-dashoffset:0;stroke-opacity:1;color-rendering:auto;image-rendering:auto;shape-rendering:auto;text-rendering:auto"
       id="g4975"
       transform="rotate(90,68.52928,230.81157)">
      <text
         id="text5347"
         y="13.238579"
         x="-229.08994"
         style="font-style:normal;font-variant:normal;font-weight:normal;font-stretch:normal;font-size:11.32055569px;line-height:0%;font-family:sans-serif;-inkscape-font-specification:'sans-serif, Normal';text-align:start;letter-spacing:0px;word-spacing:0px;writing-mode:lr-tb;text-anchor:start;color-interpolation:sRGB;fill:#000000;fill-opacity:1;stroke:none;stroke-width:0.94337964px;stroke-linecap:butt;stroke-linejoin:miter;stroke-miterlimit:10;stroke-dasharray:none;stroke-dashoffset:0;stroke-opacity:1;color-rendering:auto;image-rendering:auto;shape-rendering:auto;text-rendering:auto"
         xml:space="preserve"
         transform="rotate(-90)"><tspan
           y="13.238579"
           x="-229.08994"
           id="tspan5349"
           sodipodi:role="line"
           style="font-size:10.6130209px;line-height:1.25;stroke-width:0.94337964px">bh<tspan
   style="font-size:64.99999762%;baseline-shift:sub"
   id="tspan7145">y</tspan></tspan></text>
    </g>
    <g
       transform="translate(-2.0145411,-187.27478)"
       id="g5957"
       style="font-style:normal;font-weight:normal;font-size:12px;font-family:Dialog;color-interpolation:sRGB;fill:#000000;fill-opacity:1;stroke:#000000;stroke-width:1;stroke-linecap:square;stroke-linejoin:miter;stroke-miterlimit:10;stroke-dasharray:none;stroke-dashoffset:0;stroke-opacity:1;color-rendering:auto;image-rendering:auto;shape-rendering:auto;text-rendering:auto">
      <text
         transform="rotate(-90)"
         xml:space="preserve"
         style="font-style:normal;font-variant:normal;font-weight:normal;font-stretch:normal;font-size:11.32055569px;line-height:0%;font-family:sans-serif;-inkscape-font-specification:'sans-serif, Normal';text-align:start;letter-spacing:0px;word-spacing:0px;writing-mode:lr-tb;text-anchor:start;color-interpolation:sRGB;fill:#000000;fill-opacity:1;stroke:none;stroke-width:0.94337964px;stroke-linecap:butt;stroke-linejoin:miter;stroke-miterlimit:10;stroke-dasharray:none;stroke-dashoffset:0;stroke-opacity:1;color-rendering:auto;image-rendering:auto;shape-rendering:auto;text-rendering:auto"
         x="-275.27075"
         y="13.238579"
         id="text5951"><tspan
           style="font-size:10.6130209px;line-height:1.25;stroke-width:0.94337964px"
           sodipodi:role="line"
           id="tspan5949"
           x="-275.27075"
           y="13.238579">u<tspan
   style="font-size:64.99999762%;baseline-shift:sub"
   id="tspan6826">0</tspan> (µm/s)</tspan></text>
    </g>
    <g
       id="g6323"
       style="font-style:normal;font-weight:normal;font-size:medium;font-family:Dialog;color-interpolation:sRGB;fill:#ffffff;fill-opacity:1;stroke:#ffffff;stroke-width:1;stroke-linecap:square;stroke-linejoin:miter;stroke-miterlimit:10;stroke-dasharray:none;stroke-dashoffset:0;stroke-opacity:1;color-rendering:auto;image-rendering:auto;shape-rendering:auto;text-rendering:auto"
       transform="matrix(0.67678523,0,0,0.67678523,-18.738044,-6.13029)" />
    <g
       transform="rotate(90,74.471311,223.54461)"
       id="g7153"
       style="font-style:normal;font-weight:normal;font-size:12px;font-family:Dialog;color-interpolation:sRGB;fill:#000000;fill-opacity:1;stroke:#000000;stroke-width:1;stroke-linecap:square;stroke-linejoin:miter;stroke-miterlimit:10;stroke-dasharray:none;stroke-dashoffset:0;stroke-opacity:1;color-rendering:auto;image-rendering:auto;shape-rendering:auto;text-rendering:auto">
      <text
         transform="rotate(-90)"
         xml:space="preserve"
         style="font-style:normal;font-variant:normal;font-weight:normal;font-stretch:normal;font-size:11.32055569px;line-height:0%;font-family:sans-serif;-inkscape-font-specification:'sans-serif, Normal';text-align:start;letter-spacing:0px;word-spacing:0px;writing-mode:lr-tb;text-anchor:start;color-interpolation:sRGB;fill:#000000;fill-opacity:1;stroke:none;stroke-width:0.94337964px;stroke-linecap:butt;stroke-linejoin:miter;stroke-miterlimit:10;stroke-dasharray:none;stroke-dashoffset:0;stroke-opacity:1;color-rendering:auto;image-rendering:auto;shape-rendering:auto;text-rendering:auto"
         x="-227.765"
         y="13.238579"
         id="text7151"><tspan
           style="font-size:10.6130209px;line-height:1.25;stroke-width:0.94337964px"
           sodipodi:role="line"
           id="tspan7149"
           x="-227.765"
           y="13.238579">bh<tspan
   id="tspan7147"
   style="font-size:64.99999762%;baseline-shift:sub">x</tspan></tspan></text>
    </g>
    <path
       style="font-style:normal;font-weight:normal;font-size:12px;font-family:Dialog;display:inline;opacity:1;color-interpolation:sRGB;vector-effect:none;fill:none;fill-opacity:1;fill-rule:evenodd;stroke:#0072bd;stroke-width:1;stroke-linecap:butt;stroke-linejoin:miter;stroke-miterlimit:10;stroke-dasharray:none;stroke-dashoffset:0;stroke-opacity:1;color-rendering:auto;image-rendering:auto;shape-rendering:auto;text-rendering:auto"
       d="M 45.406176,157.94536 H 65.933492"
       id="path1738"
       inkscape:connector-curvature="0"
       sodipodi:nodetypes="cc" />
    <path
       sodipodi:nodetypes="cc"
       inkscape:connector-curvature="0"
       id="path1758"
       d="M 45.406176,171.94536 H 65.933492"
       style="font-style:normal;font-weight:normal;font-size:12px;font-family:Dialog;display:inline;opacity:1;color-interpolation:sRGB;vector-effect:none;fill:none;fill-opacity:1;fill-rule:evenodd;stroke:#d95319;stroke-width:1;stroke-linecap:butt;stroke-linejoin:miter;stroke-miterlimit:10;stroke-dasharray:none;stroke-dashoffset:0;stroke-opacity:1;color-rendering:auto;image-rendering:auto;shape-rendering:auto;text-rendering:auto" />
  </g>
</svg>
