<?xml version="1.0" encoding="UTF-8" standalone="no"?>
<svg
   xmlns:dc="http://purl.org/dc/elements/1.1/"
   xmlns:cc="http://creativecommons.org/ns#"
   xmlns:rdf="http://www.w3.org/1999/02/22-rdf-syntax-ns#"
   xmlns:svg="http://www.w3.org/2000/svg"
   xmlns="http://www.w3.org/2000/svg"
   xmlns:sodipodi="http://sodipodi.sourceforge.net/DTD/sodipodi-0.dtd"
   xmlns:inkscape="http://www.inkscape.org/namespaces/inkscape"
   style="font-style:normal;font-weight:normal;font-size:12px;font-family:Dialog;color-interpolation:sRGB;fill:#000000;fill-opacity:1;stroke:#000000;stroke-width:1;stroke-linecap:square;stroke-linejoin:miter;stroke-miterlimit:10;stroke-dasharray:none;stroke-dashoffset:0;stroke-opacity:1;color-rendering:auto;image-rendering:auto;shape-rendering:auto;text-rendering:auto"
   width="320"
   height="250"
   version="1.1"
   id="svg318"
   sodipodi:docname="JM_urea_input.svg"
   inkscape:version="0.92.2 2405546, 2018-03-11">
  <metadata
     id="metadata322">
    <rdf:RDF>
      <cc:Work
         rdf:about="">
        <dc:format>image/svg+xml</dc:format>
        <dc:type
           rdf:resource="http://purl.org/dc/dcmitype/StillImage" />
        <dc:title />
      </cc:Work>
    </rdf:RDF>
  </metadata>
  <sodipodi:namedview
     pagecolor="#ffffff"
     bordercolor="#666666"
     borderopacity="1"
     objecttolerance="10"
     gridtolerance="10"
     guidetolerance="10"
     inkscape:pageopacity="0"
     inkscape:pageshadow="2"
     inkscape:window-width="1280"
     inkscape:window-height="996"
     id="namedview320"
     showgrid="false"
     inkscape:zoom="1.25059"
     inkscape:cx="136.13519"
     inkscape:cy="147.13499"
     inkscape:window-x="640"
     inkscape:window-y="0"
     inkscape:window-maximized="1"
     inkscape:current-layer="svg318" />
  <!--Generated by the Batik Graphics2D SVG Generator-->
  <defs
     id="genericDefs" />
  <g
     id="g32"
     style="fill:#ffffff;stroke:#ffffff"
     transform="matrix(0.6526609,0,0,0.6526609,-11.307047,-17.663364)" />
  <g
     id="g38"
     style="color-interpolation:sRGB;fill:#ffffff;stroke:#ffffff;color-rendering:optimizeSpeed;image-rendering:optimizeSpeed;shape-rendering:crispEdges;text-rendering:optimizeSpeed"
     transform="matrix(0.6526609,0,0,0.6526609,-13.307047,-13.663364)">
    <path
       inkscape:connector-curvature="0"
       id="path36"
       d="M 73,175 H 507 V 31 H 73 Z"
       style="fill:none;stroke:#000000;stroke-opacity:1" />
  </g>
  <g
     id="g70"
     style="color-interpolation:sRGB;fill:#808080;stroke:#808080;stroke-width:0.66670001;stroke-linecap:butt;stroke-linejoin:bevel;stroke-miterlimit:1;stroke-dasharray:1, 3;color-rendering:optimizeQuality;image-rendering:optimizeQuality;text-rendering:geometricPrecision"
     transform="matrix(0.6526609,0,0,0.6526609,-13.307047,-13.663364)">
    <line
       id="line40"
       y1="175"
       x2="73"
       x1="73"
       style="fill:none"
       y2="31" />
    <line
       id="line42"
       y1="175"
       x2="116.4725"
       x1="116.4725"
       style="fill:none"
       y2="31" />
    <line
       id="line44"
       y1="175"
       x2="159.9449"
       x1="159.9449"
       style="fill:none"
       y2="31" />
    <line
       id="line46"
       y1="175"
       x2="203.4174"
       x1="203.4174"
       style="fill:none"
       y2="31" />
    <line
       id="line48"
       y1="175"
       x2="246.8898"
       x1="246.8898"
       style="fill:none"
       y2="31" />
    <line
       id="line50"
       y1="175"
       x2="290.3623"
       x1="290.3623"
       style="fill:none"
       y2="31" />
    <line
       id="line52"
       y1="175"
       x2="333.83469"
       x1="333.83469"
       style="fill:none"
       y2="31" />
    <line
       id="line54"
       y1="175"
       x2="377.30719"
       x1="377.30719"
       style="fill:none"
       y2="31" />
    <line
       id="line56"
       y1="175"
       x2="420.7796"
       x1="420.7796"
       style="fill:none"
       y2="31" />
    <line
       id="line58"
       y1="175"
       x2="464.25211"
       x1="464.25211"
       style="fill:none"
       y2="31" />
    <line
       id="line60"
       y1="175"
       x2="73"
       x1="507"
       style="fill:none"
       y2="175" />
    <line
       id="line62"
       y1="139"
       x2="73"
       x1="507"
       style="fill:none"
       y2="139" />
    <line
       id="line64"
       y1="103"
       x2="73"
       x1="507"
       style="fill:none"
       y2="103" />
    <line
       id="line66"
       y1="67"
       x2="73"
       x1="507"
       style="fill:none"
       y2="67" />
    <line
       id="line68"
       y1="31"
       x2="73"
       x1="507"
       style="fill:none"
       y2="31" />
  </g>
  <g
     id="g94"
     style="color-interpolation:sRGB;fill:#262626;stroke:#262626;stroke-width:0.66670001;stroke-linejoin:round;color-rendering:optimizeQuality;image-rendering:optimizeQuality;text-rendering:geometricPrecision"
     transform="matrix(0.6526609,0,0,0.6526609,-13.307047,-13.663364)">
    <line
       id="line74"
       y1="175"
       x2="73"
       x1="73"
       style="fill:none"
       y2="170.66" />
    <line
       id="line76"
       y1="175"
       x2="116.4725"
       x1="116.4725"
       style="fill:none"
       y2="170.66" />
    <line
       id="line78"
       y1="175"
       x2="159.9449"
       x1="159.9449"
       style="fill:none"
       y2="170.66" />
    <line
       id="line80"
       y1="175"
       x2="203.4174"
       x1="203.4174"
       style="fill:none"
       y2="170.66" />
    <line
       id="line82"
       y1="175"
       x2="246.8898"
       x1="246.8898"
       style="fill:none"
       y2="170.66" />
    <line
       id="line84"
       y1="175"
       x2="290.3623"
       x1="290.3623"
       style="fill:none"
       y2="170.66" />
    <line
       id="line86"
       y1="175"
       x2="333.83469"
       x1="333.83469"
       style="fill:none"
       y2="170.66" />
    <line
       id="line88"
       y1="175"
       x2="377.30719"
       x1="377.30719"
       style="fill:none"
       y2="170.66" />
    <line
       id="line90"
       y1="175"
       x2="420.7796"
       x1="420.7796"
       style="fill:none"
       y2="170.66" />
    <line
       id="line92"
       y1="175"
       x2="464.25211"
       x1="464.25211"
       style="fill:none"
       y2="170.66" />
  </g>
  <text
     x="33.373508"
     xml:space="preserve"
     y="108.51772"
     style="font-style:normal;font-variant:normal;font-weight:normal;font-stretch:normal;font-size:8px;font-family:sans-serif;-inkscape-font-specification:sans-serif;text-align:center;text-anchor:middle;color-interpolation:sRGB;fill:#262626;stroke:none;stroke-width:0.65266091;color-rendering:optimizeQuality;image-rendering:optimizeQuality;text-rendering:geometricPrecision"
     id="text96">0</text>
  <text
     x="61.58569"
     xml:space="preserve"
     y="108.51772"
     style="font-style:normal;font-variant:normal;font-weight:normal;font-stretch:normal;font-size:8px;font-family:sans-serif;-inkscape-font-specification:sans-serif;text-align:center;text-anchor:middle;color-interpolation:sRGB;fill:#262626;stroke:none;stroke-width:0.65266091;color-rendering:optimizeQuality;image-rendering:optimizeQuality;text-rendering:geometricPrecision"
     id="text100">2</text>
  <text
     x="90.22612"
     xml:space="preserve"
     y="108.51772"
     style="font-style:normal;font-variant:normal;font-weight:normal;font-stretch:normal;font-size:8px;font-family:sans-serif;-inkscape-font-specification:sans-serif;text-align:center;text-anchor:middle;color-interpolation:sRGB;fill:#262626;stroke:none;stroke-width:0.65266091;color-rendering:optimizeQuality;image-rendering:optimizeQuality;text-rendering:geometricPrecision"
     id="text104">4</text>
  <text
     x="118.48994"
     xml:space="preserve"
     y="108.51772"
     style="font-style:normal;font-variant:normal;font-weight:normal;font-stretch:normal;font-size:8px;font-family:sans-serif;-inkscape-font-specification:sans-serif;text-align:center;text-anchor:middle;color-interpolation:sRGB;fill:#262626;stroke:none;stroke-width:0.65266091;color-rendering:optimizeQuality;image-rendering:optimizeQuality;text-rendering:geometricPrecision"
     id="text108">6</text>
  <text
     x="146.84929"
     xml:space="preserve"
     y="108.51772"
     style="font-style:normal;font-variant:normal;font-weight:normal;font-stretch:normal;font-size:8px;font-family:sans-serif;-inkscape-font-specification:sans-serif;text-align:center;text-anchor:middle;color-interpolation:sRGB;fill:#262626;stroke:none;stroke-width:0.65266091;color-rendering:optimizeQuality;image-rendering:optimizeQuality;text-rendering:geometricPrecision"
     id="text112">8</text>
  <text
     x="174.94803"
     xml:space="preserve"
     y="108.51772"
     style="font-style:normal;font-variant:normal;font-weight:normal;font-stretch:normal;font-size:8px;font-family:sans-serif;-inkscape-font-specification:sans-serif;text-align:center;text-anchor:middle;color-interpolation:sRGB;fill:#262626;stroke:none;stroke-width:0.65266091;color-rendering:optimizeQuality;image-rendering:optimizeQuality;text-rendering:geometricPrecision"
     id="text116">10</text>
  <text
     x="203.18883"
     xml:space="preserve"
     y="108.51772"
     style="font-style:normal;font-variant:normal;font-weight:normal;font-stretch:normal;font-size:8px;font-family:sans-serif;-inkscape-font-specification:sans-serif;text-align:center;text-anchor:middle;color-interpolation:sRGB;fill:#262626;stroke:none;stroke-width:0.65266091;color-rendering:optimizeQuality;image-rendering:optimizeQuality;text-rendering:geometricPrecision"
     id="text120">12</text>
  <text
     x="231.7337"
     xml:space="preserve"
     y="108.51772"
     style="font-style:normal;font-variant:normal;font-weight:normal;font-stretch:normal;font-size:8px;font-family:sans-serif;-inkscape-font-specification:sans-serif;text-align:center;text-anchor:middle;color-interpolation:sRGB;fill:#262626;stroke:none;stroke-width:0.65266091;color-rendering:optimizeQuality;image-rendering:optimizeQuality;text-rendering:geometricPrecision"
     id="text124">14</text>
  <text
     x="260.07965"
     xml:space="preserve"
     y="108.51772"
     style="font-style:normal;font-variant:normal;font-weight:normal;font-stretch:normal;font-size:8px;font-family:sans-serif;-inkscape-font-specification:sans-serif;text-align:center;text-anchor:middle;color-interpolation:sRGB;fill:#262626;stroke:none;stroke-width:0.65266091;color-rendering:optimizeQuality;image-rendering:optimizeQuality;text-rendering:geometricPrecision"
     id="text128">16</text>
  <text
     x="288.43143"
     xml:space="preserve"
     y="108.51772"
     style="font-style:normal;font-variant:normal;font-weight:normal;font-stretch:normal;font-size:8px;font-family:sans-serif;-inkscape-font-specification:sans-serif;text-align:center;text-anchor:middle;color-interpolation:sRGB;fill:#262626;stroke:none;stroke-width:0.65266091;color-rendering:optimizeQuality;image-rendering:optimizeQuality;text-rendering:geometricPrecision"
     id="text132">18</text>
  <g
     id="g148"
     style="color-interpolation:sRGB;fill:#262626;stroke:#262626;stroke-width:0.66670001;stroke-linejoin:round;color-rendering:optimizeQuality;image-rendering:optimizeQuality;text-rendering:geometricPrecision"
     transform="matrix(0.6526609,0,0,0.6526609,-13.307047,-13.663364)">
    <line
       id="line138"
       y1="175"
       x2="77.339996"
       x1="73"
       style="fill:none"
       y2="175" />
    <line
       id="line140"
       y1="139"
       x2="77.339996"
       x1="73"
       style="fill:none"
       y2="139" />
    <line
       id="line142"
       y1="103"
       x2="77.339996"
       x1="73"
       style="fill:none"
       y2="103" />
    <line
       id="line144"
       y1="67"
       x2="77.339996"
       x1="73"
       style="fill:none"
       y2="67" />
    <line
       id="line146"
       y1="31"
       x2="77.339996"
       x1="73"
       style="fill:none"
       y2="31" />
  </g>
  <text
     x="28.928972"
     xml:space="preserve"
     y="103.48927"
     style="font-style:normal;font-variant:normal;font-weight:normal;font-stretch:normal;font-size:8px;font-family:sans-serif;-inkscape-font-specification:sans-serif;text-align:end;text-anchor:end;color-interpolation:sRGB;fill:#262626;stroke:none;stroke-width:0.65266091;color-rendering:optimizeQuality;image-rendering:optimizeQuality;text-rendering:geometricPrecision"
     id="text150">0</text>
  <text
     x="28.676577"
     xml:space="preserve"
     y="79.993477"
     style="font-style:normal;font-variant:normal;font-weight:normal;font-stretch:normal;font-size:8px;font-family:sans-serif;-inkscape-font-specification:sans-serif;text-align:end;text-anchor:end;color-interpolation:sRGB;fill:#262626;stroke:none;stroke-width:0.65266091;color-rendering:optimizeQuality;image-rendering:optimizeQuality;text-rendering:geometricPrecision"
     id="text154">5</text>
  <text
     x="28.350246"
     xml:space="preserve"
     y="56.497684"
     style="font-style:normal;font-variant:normal;font-weight:normal;font-stretch:normal;font-size:8px;font-family:sans-serif;-inkscape-font-specification:sans-serif;text-align:end;text-anchor:end;color-interpolation:sRGB;fill:#262626;stroke:none;stroke-width:0.65266091;color-rendering:optimizeQuality;image-rendering:optimizeQuality;text-rendering:geometricPrecision"
     id="text158">10</text>
  <text
     x="28.185806"
     xml:space="preserve"
     y="33.001892"
     style="font-style:normal;font-variant:normal;font-weight:normal;font-stretch:normal;font-size:8px;font-family:sans-serif;-inkscape-font-specification:sans-serif;text-align:end;text-anchor:end;color-interpolation:sRGB;fill:#262626;stroke:none;stroke-width:0.65266091;color-rendering:optimizeQuality;image-rendering:optimizeQuality;text-rendering:geometricPrecision"
     id="text162">15</text>
  <text
     x="28.63706"
     xml:space="preserve"
     y="9.5060978"
     style="font-style:normal;font-variant:normal;font-weight:normal;font-stretch:normal;font-size:8px;font-family:sans-serif;-inkscape-font-specification:sans-serif;text-align:end;text-anchor:end;color-interpolation:sRGB;fill:#262626;stroke:none;stroke-width:0.65266091;color-rendering:optimizeQuality;image-rendering:optimizeQuality;text-rendering:geometricPrecision"
     id="text166">20</text>
  <g
     id="g174"
     style="color-interpolation:sRGB;fill:#0072bd;stroke:#0072bd;stroke-width:0.66670001;stroke-linecap:butt;stroke-linejoin:round;color-rendering:optimizeQuality;image-rendering:optimizeQuality;text-rendering:geometricPrecision"
     transform="matrix(0.6526609,0,0,0.6526609,-13.307047,-13.663364)">
    <path
       inkscape:connector-curvature="0"
       id="path170"
       style="opacity:1;vector-effect:none;fill:none;fill-opacity:1;fill-rule:evenodd;stroke:#0072bd;stroke-width:1.53218925;stroke-linecap:butt;stroke-linejoin:miter;stroke-miterlimit:10;stroke-dasharray:none;stroke-dashoffset:0;stroke-opacity:1"
       d="m 73,117.4788 0.7245,-10.5691 0.7246,-7.5441 0.7245,7.7222 0.7246,4.6928 0.7245,-15.8259 0.7245,4.0328 0.7246,13.6016 0.7245,-8.6688 0.7246,0.1596 0.7245,10.363 0.7245,-20.8425 0.7246,1.7539 0.7245,3.9328 0.7246,13.0697 0.7245,-7.612 0.7246,-2.3885 0.7245,-19.5126 0.7245,12.053 0.7246,15.9032 0.7245,-2.5964 0.7246,-1.931 0.7245,10.1527 0.7245,8.0719 0.7246,-14.5097 0.7245,4.947 0.7246,-1.8034 0.7245,-28.4071 0.7245,0.6151 0.7246,18.1745 0.7245,0.2729 0.7246,-17.4376 0.7245,3.225 0.7246,17.0117 0.7245,-10.3057 0.7245,10.6241 0.7246,-2.6076 0.7245,9.9326 0.7246,8.8171 0.7245,-3.7918 0.7245,4.989 0.7246,-6.0442 0.7245,-4.7434 0.7246,-17.162 0.7245,9.5932 0.7245,4.3077 0.7246,-9.5522 0.7245,-4.9882 0.7246,12.8836 0.7245,4.8827 0.7245,-10.9113 0.7246,1.0918 0.7245,11.9318 0.7246,-7.0477 0.7245,-4.4481 0.7245,10.2755 0.7246,0.3471 0.7245,-14.0333 0.7246,-2.4801 0.7245,12.9718 0.7246,-4.5968 0.7245,-7.4987 0.7245,-20.0232 0.7246,14.495 0.7245,7.0764 0.7246,2.2116 0.7245,-18.0915 0.7245,12.6691 0.7246,5.1906 0.7245,-17.9447 0.7246,12.6657 0.7245,3.4502 0.7245,-10.9176 0.7246,-2.0195 0.7245,16.2005 0.7246,5.1312 0.7245,-18.7653 0.7245,-5.1228 0.7246,16.6275 0.7245,-10.9075 0.7246,0.262 0.7245,-22.6465 0.7246,17.0006 0.7245,12.2271 0.7245,2.6658 0.7246,-14.1336 0.7245,13.0464 0.7246,1.4485 0.7245,-15.9898 0.7245,13.3101 0.7246,-0.0108 0.7245,-17.8522 0.7246,8.5931 0.7245,18.8656 0.7245,6.4473 0.7246,-14.1997 0.7245,-5.2348 0.7246,13.3713 0.7245,0.8981 0.7246,-4.8238 0.7245,-2.5214 0.7245,11.7686 0.7246,-0.6629 0.7245,-1.0357 0.7245,8.2946 0.7246,5.81 0.7245,-3.6319 0.7246,5.1462 0.7245,4.1995 0.7246,-5.8092 0.7245,-7.3378 0.7245,-7.2894 0.7246,8.18 0.7245,3.5874 0.7246,3.523 0.7245,5.1299 0.7245,2.8337 0.7246,1.9185 0.7245,-10.9991 0.7246,-0.5425 0.7245,-6.2351 0.7245,-8.1862 0.7246,1.5893 0.7245,8.9749 0.7246,-12.6426 0.7245,-30.8335 0.7245,1.7002 0.7246,22.2751 0.7245,9.2799 0.7246,9.1452 0.7245,6.2682 0.7246,-1.0912 0.7245,-9.8806 0.7245,-4.2378 0.7246,8.4253 0.7245,3.3971 0.7246,-1.8098 0.7245,1.2203 0.7245,5.8864 0.7246,-0.5561 0.7245,-6.0364 0.7246,6.9255 0.7245,1.8643 0.7246,0.4823 0.7245,1.5256 0.7245,2.6149 0.7246,-2.6467 0.7245,0.6479 0.7246,-6.4961 0.7245,0.0218 0.7245,-9.8708 0.7246,-9.8702 0.7245,4.9276 0.7246,8.1953 0.7245,1.9702 0.7245,-0.7365 0.7246,3.9163 0.7245,5.6598 0.7246,-2.0822 0.7245,4.245 0.7245,-0.1279 0.7246,1.7969 0.7245,1.296 0.7246,-3.7825 0.7245,1.5101 0.7246,-10.0929 0.7245,0.5632 0.7245,-0.933 0.7246,5.199 0.7245,-5.1722 0.7246,2.7475 0.7245,-8.1741 0.7245,5.2136 0.7246,-2.9233 0.7245,-3.2464 0.7246,-7.2734 0.7245,5.7608 0.7245,-11.3652 0.7246,11.7674 0.7245,7.8199 0.7246,-7.9834 0.7245,-19.798 0.7245,-10.2069 0.7246,15.6075 0.7245,-2.96 0.7246,-6.3624 0.7245,-9.634 0.7246,16.0687 0.7245,-9.9497 0.7245,-3.6013 0.7246,-3.012 0.7245,17.9891 0.7246,9.5712 0.7245,-0.4228 0.7245,7.6566 0.7246,-24.124 0.7245,-10.6177 0.7246,3.4301 0.7245,18.5721 0.7245,9.2781 0.7246,-0.6676 0.7245,-13.8648 0.7246,9.8788 0.7245,-5.0643 0.7246,-9.9689 0.7245,-1.9534 0.7245,15.3646 0.7246,-7.9835 0.7245,-0.6199 0.7245,13.2659 0.7246,0.4208 0.7245,-3.8444 0.7246,3.3389 0.7245,9.9638 0.7245,-21.3085 0.7246,0.734 0.7245,4.8829 0.7246,12.1899 0.7245,-4.3372 0.7246,0.9616 0.7245,-14.9695 0.7245,9.4236 0.7246,-5.9586 0.7245,-6.782 0.7246,9.4133 0.7245,13.1718 0.7245,-11.8502 0.7246,-4.0508 0.7245,11.1416 0.7246,-2.365 0.7245,-20.7219 0.7245,-7.6402 0.7246,16.9895 0.7245,-7.1299 0.7246,-2.732 0.7245,0.9847 0.7246,15.7498 0.7245,11.8304 0.7245,2.2325 0.7246,-30.2955 0.7245,7.9459 0.7246,12.5498 0.7245,1.6943 0.7245,8.5148 0.7246,-0.9635 0.7245,-4.9807 0.7246,2.971 0.7245,7.6577 0.7245,-4.4499 0.7246,-26.0291 0.7245,-3.366 0.7246,15.2972 0.7245,-8.452 0.7245,4.5046 0.7246,0.5519 0.7245,11.4945 0.7246,-3.8627 0.7245,-9.0764 0.7245,9.7165 0.7246,-12.5503 0.7245,0.2862 0.7246,2.3442 0.7245,12.3816 0.7246,0.4274 0.7245,-4.6957 0.7245,-20.439 0.7246,9.3989 0.7245,-0.5204 0.7246,15.5509 0.7245,3.4997 0.7245,6.0961 0.7246,-7.027 0.7245,-7.405 0.7246,7.9643 0.7245,0.9165 0.7245,-22.951 0.7246,0.2502 0.7245,14.8285 0.7246,-5.5167 0.7245,0.6441 0.7246,-7.7623 0.7245,11.4319 0.7245,1.8036 0.7246,-6.1209 0.7245,-8.6244 0.7246,11.8974 0.7245,9.8992 0.7245,-4.5015 0.7246,6.7216 0.7245,-1.5992 0.7246,-2.3322 0.7245,-12.5281 0.7245,8.5312 0.7246,1.8317 0.7245,-8.3951 0.7246,-3.1919 0.7245,11.2066 0.7245,-8.3584 0.7246,-1.6713 0.7245,3.7472 0.7246,11.1306 0.7245,-7.0037 0.7245,-3.4168 0.7246,-7.9364 0.7245,10.6429 0.7246,1.0123 0.7245,1.7083 0.7246,8.4746 0.7245,2.1024 0.7245,-3.9014 0.7246,-12.1798 0.7245,7.2624 0.7246,-0.0992 0.7245,-9.398 0.7245,6.2659 0.7246,10.4506 0.7245,-11.8531 0.7246,-7.1455 0.7245,-2.1229 0.7245,11.923 0.7246,-13.4241 0.7245,1.8981 0.7246,12.7565 0.7245,-9.4965 0.7246,1.6391 0.7245,-4.9805 0.7245,10.7955 0.7246,-0.1953 0.7245,-5.9329 0.7245,-21.8167 0.7246,12.5533 0.7246,5.9738 0.7245,-16.4773 0.7245,5.4183 0.7246,16.7176 0.7245,2.709 0.7245,-10.4477 0.7246,9.4948 0.7245,-1.1462 0.7246,-19.308 0.7245,-9.5878 0.7246,17.1697 0.7245,-8.0486 0.7245,-2.9007 0.7246,-0.2893 0.7245,16.8505 0.7246,-11.9344 0.7245,4.9355 0.7245,-4.6908 0.7246,13.8623 0.7245,-0.2735 0.7245,-20.8037 0.7246,12.5111 0.7245,2.783 0.7246,-2.1824 0.7245,-13.4106 0.7246,14.4553 0.7245,-0.0092 0.7246,-13.3955 0.7245,0.9893 0.7245,17.5737 0.7246,-12.3535 0.7245,2.8245 0.7246,6.8103 0.7245,13.7334 0.7245,-13.1068 0.7246,-1.9649 0.7245,-18.4786 0.7245,14.1881 0.7246,6.8464 0.7245,-3.7333 0.7246,11.6338 0.7245,-12.7471 0.7246,10.8915 0.7245,-1.1249 0.7246,9.5684 0.7245,8.1821 0.7245,-17.3436 0.7246,-9.4502 0.7245,11.5499 0.7246,-18.1038 0.7245,5.2891 0.7245,13.2837 0.7245,8.3532 0.7246,-22.5922 0.7245,11.8744 0.7246,11.1467 0.7245,5.0543 0.7246,-2.0447 0.7245,-2.7224 0.7246,2.5451 0.7245,-12.8144 0.7245,-6.4115 0.7246,-11.1484 0.7245,12.4775 0.7246,-28.0223 0.7245,22.2365 0.7245,4.8664 0.7246,11.9709 0.7245,-13.8871 0.7245,-10.3376 0.7246,13.8893 0.7245,8.738 0.7246,7.5579 0.7245,-9.1944 0.7246,6.5552 0.7245,-1.3119 0.7246,-20.793 0.7245,-2.4717 0.7245,14.7369 0.7246,-7.5813 0.7245,4.3874 0.7246,3.3217 0.7245,10.562 0.7245,6.5565 0.7246,-4.2505 0.7245,4.419 0.7245,-2.2035 0.7246,-5.7017 0.7245,-17.8969 0.7246,8.1086 0.7245,10.7736 0.7246,-22.4766 0.7245,-15.6941 0.7246,14.8683 0.7245,4.9241 0.7245,-1.865 0.7246,2.4088 0.7245,12.0191 0.7246,6.751 0.7245,1.5248 0.7245,5.4483 0.7245,-25.6416 0.7246,-13.8313 0.7245,7.1952 0.7246,16.3997 0.7245,3.2279 0.7246,-3.6954 0.7245,-17.2935 0.7246,6.3964 0.7245,4.0506 0.7245,-12.681 0.7246,11.6278 0.7245,14.0579 0.7246,-0.7376 0.7245,5.3299 0.7245,-3.6448 0.7246,6.4059 0.7245,2.7932 0.7245,1.1483 0.7246,3.7702 0.7245,-4.7248 0.7246,-20.9198 0.7245,-4.6818 0.7246,11.9189 0.7245,-5.7201 0.7246,6.6747 0.7245,5.2275 0.7245,5.4762 0.7246,1.5275 0.7245,-1.9324 0.7246,-2.0871 0.7245,4.8914 0.7245,3.8171 0.7246,0.6823 0.7245,2.4136 0.7246,-0.8357 0.7245,-12.4488 0.7245,-50.4495 0.7246,18.4516 0.7245,15.2111 0.7246,9.0875 0.7245,4.2836 0.7246,7.2603 0.7245,-3.442 0.7245,3.1988 0.7246,-3.1634 0.7245,3.494 0.7246,-6.6173 0.7245,-1.4678 0.7245,7.1309 0.7246,1.3467 0.7245,3.7955 0.7246,-14.739 0.7245,4.3977 0.7245,3.6686 0.7246,-8.0451 0.7245,-8.5365 0.7246,8.7587 0.7245,-2.8344 0.7246,-15.7962 0.7245,-2.2466 0.7245,14.601 0.7245,4.498 0.7246,-4.6496 0.7245,8.1774 0.7246,-6.9458 0.7245,-10.2155 0.7246,-2.6687 0.7245,14.1306 0.7245,-10.2228 0.7246,-2.7053 0.7245,9.7795 0.7246,11.8621 0.7245,-13.2473 0.7246,-3.0488 0.7245,5.504 0.7245,11.4347 0.7246,-10.5271 0.7245,-18.9614 0.7246,8.8213 0.7245,15.3173 0.7246,4.987 0.7245,-17.5914 0.7245,7.4818 0.7245,3.7222 0.7246,-32.0806 0.7245,1.9092 0.7246,19.6924 0.7245,-4.0609 0.7246,3.2118 0.7245,9.4685 0.7245,8.7985 0.7246,-12.5741 0.7246,-7.5208 0.7245,-12.1626 0.7245,14.0673 0.7246,9.2436 0.7245,-7.0683 0.7245,8.19 0.7246,0.6322 0.7245,0.6341 0.7246,-9.5263 0.7245,9.0089 0.7245,1.5976 0.7246,-21.8789 0.7245,1.9994 0.7246,12.6523 0.7245,1.9219 0.7246,-7.0879 0.7245,11.2475 0.7245,8.9456 0.7246,-3.4073 0.7245,-0.8347 0.7245,6.4525 0.7246,-19.326 0.7245,-19.9988 0.7246,-2.2582 0.7245,18.3022 0.7245,-0.2131 0.7246,-2.4524 0.7245,4.9771 0.7246,11.4476 0.7245,-17.3823 0.7246,-1.6997 0.7245,-6.8352 0.7245,14.0172 0.7246,8.8644 0.7245,-5.7835 0.7246,8.5004 0.7245,2.3225 0.7246,-50.6918 0.7245,12.4341 0.7245,22.6094 0.7246,3.8841 0.7245,-36.1223 0.7245,-15.397 0.7246,17.066 0.7245,-14.9321 0.7246,1.7793 0.7245,0.7164 0.7245,24.1318 0.7246,6.6475 0.7246,10.4766 0.7245,13.7852 0.7245,5.4301 0.7246,-3.3395 0.7245,-41.5428 0.7245,11.5766 0.7246,3.4537 0.7245,-1.028 0.7246,-7.4336 0.7245,16.8619 0.7245,14.3036 0.7246,-16.8427 0.7245,-20.2852 0.7246,17.0961 0.7245,14.0912 0.7246,6.6424 0.7245,0.5779 0.7245,7.8924 0.7246,-4.1267 0.7245,-4.0217 0.7245,7.6543 0.7246,-1.629 0.7245,-4.3822 0.7246,-11.931 0.7245,9.3344 0.7246,8.8692 0.7245,-6.9779" />
    <path
       style="opacity:1;vector-effect:none;fill:none;fill-opacity:1;fill-rule:evenodd;stroke:#d95319;stroke-width:1.53218925;stroke-linecap:butt;stroke-linejoin:miter;stroke-miterlimit:10;stroke-dasharray:none;stroke-dashoffset:0;stroke-opacity:1"
       d="m 73,103 c 144.66667,0 289.33333,0 434,0"
       id="path172"
       inkscape:connector-curvature="0" />
  </g>
  <g
     id="g178"
     style="color-interpolation:sRGB;fill:#ffffff;stroke:#ffffff;color-rendering:optimizeSpeed;image-rendering:optimizeSpeed;shape-rendering:crispEdges;text-rendering:optimizeSpeed"
     transform="matrix(0.6526609,0,0,0.6526609,-13.307047,-17.663364)">
    <path
       inkscape:connector-curvature="0"
       id="path176"
       d="M 73,374 H 507 V 231 H 73 Z"
       style="fill:none;stroke:#000000;stroke-opacity:1" />
  </g>
  <g
     id="g210"
     style="color-interpolation:sRGB;fill:#808080;stroke:#808080;stroke-width:0.66670001;stroke-linecap:butt;stroke-linejoin:bevel;stroke-miterlimit:1;stroke-dasharray:1, 3;color-rendering:optimizeQuality;image-rendering:optimizeQuality;text-rendering:geometricPrecision"
     transform="matrix(0.6526609,0,0,0.6526609,-13.307047,-17.663364)">
    <line
       id="line180"
       y1="374"
       x2="73"
       x1="73"
       style="fill:none"
       y2="231" />
    <line
       id="line182"
       y1="374"
       x2="116.4725"
       x1="116.4725"
       style="fill:none"
       y2="231" />
    <line
       id="line184"
       y1="374"
       x2="159.9449"
       x1="159.9449"
       style="fill:none"
       y2="231" />
    <line
       id="line186"
       y1="374"
       x2="203.4174"
       x1="203.4174"
       style="fill:none"
       y2="231" />
    <line
       id="line188"
       y1="374"
       x2="246.8898"
       x1="246.8898"
       style="fill:none"
       y2="231" />
    <line
       id="line190"
       y1="374"
       x2="290.3623"
       x1="290.3623"
       style="fill:none"
       y2="231" />
    <line
       id="line192"
       y1="374"
       x2="333.83469"
       x1="333.83469"
       style="fill:none"
       y2="231" />
    <line
       id="line194"
       y1="374"
       x2="377.30719"
       x1="377.30719"
       style="fill:none"
       y2="231" />
    <line
       id="line196"
       y1="374"
       x2="420.7796"
       x1="420.7796"
       style="fill:none"
       y2="231" />
    <line
       id="line198"
       y1="374"
       x2="464.25211"
       x1="464.25211"
       style="fill:none"
       y2="231" />
    <line
       id="line200"
       y1="374"
       x2="73"
       x1="507"
       style="fill:none"
       y2="374" />
    <line
       id="line202"
       y1="338.25"
       x2="73"
       x1="507"
       style="fill:none"
       y2="338.25" />
    <line
       id="line204"
       y1="302.5"
       x2="73"
       x1="507"
       style="fill:none"
       y2="302.5" />
    <line
       id="line206"
       y1="266.75"
       x2="73"
       x1="507"
       style="fill:none"
       y2="266.75" />
    <line
       id="line208"
       y1="231"
       x2="73"
       x1="507"
       style="fill:none"
       y2="231" />
  </g>
  <g
     id="g234"
     style="color-interpolation:sRGB;fill:#262626;stroke:#262626;stroke-width:0.66670001;stroke-linejoin:round;color-rendering:optimizeQuality;image-rendering:optimizeQuality;text-rendering:geometricPrecision"
     transform="matrix(0.6526609,0,0,0.6526609,-13.307047,-17.663364)">
    <line
       id="line214"
       y1="374"
       x2="73"
       x1="73"
       style="fill:none"
       y2="369.66" />
    <line
       id="line216"
       y1="374"
       x2="116.4725"
       x1="116.4725"
       style="fill:none"
       y2="369.66" />
    <line
       id="line218"
       y1="374"
       x2="159.9449"
       x1="159.9449"
       style="fill:none"
       y2="369.66" />
    <line
       id="line220"
       y1="374"
       x2="203.4174"
       x1="203.4174"
       style="fill:none"
       y2="369.66" />
    <line
       id="line222"
       y1="374"
       x2="246.8898"
       x1="246.8898"
       style="fill:none"
       y2="369.66" />
    <line
       id="line224"
       y1="374"
       x2="290.3623"
       x1="290.3623"
       style="fill:none"
       y2="369.66" />
    <line
       id="line226"
       y1="374"
       x2="333.83469"
       x1="333.83469"
       style="fill:none"
       y2="369.66" />
    <line
       id="line228"
       y1="374"
       x2="377.30719"
       x1="377.30719"
       style="fill:none"
       y2="369.66" />
    <line
       id="line230"
       y1="374"
       x2="420.7796"
       x1="420.7796"
       style="fill:none"
       y2="369.66" />
    <line
       id="line232"
       y1="374"
       x2="464.25211"
       x1="464.25211"
       style="fill:none"
       y2="369.66" />
  </g>
  <text
     x="33.373508"
     xml:space="preserve"
     y="234.39725"
     style="font-style:normal;font-variant:normal;font-weight:normal;font-stretch:normal;font-size:8px;font-family:sans-serif;-inkscape-font-specification:sans-serif;text-align:center;text-anchor:middle;color-interpolation:sRGB;fill:#262626;stroke:none;stroke-width:0.65266091;color-rendering:optimizeQuality;image-rendering:optimizeQuality;text-rendering:geometricPrecision"
     id="text236">0</text>
  <text
     x="61.58569"
     xml:space="preserve"
     y="234.39725"
     style="font-style:normal;font-variant:normal;font-weight:normal;font-stretch:normal;font-size:8px;font-family:sans-serif;-inkscape-font-specification:sans-serif;text-align:center;text-anchor:middle;color-interpolation:sRGB;fill:#262626;stroke:none;stroke-width:0.65266091;color-rendering:optimizeQuality;image-rendering:optimizeQuality;text-rendering:geometricPrecision"
     id="text240">2</text>
  <text
     x="90.22612"
     xml:space="preserve"
     y="234.39725"
     style="font-style:normal;font-variant:normal;font-weight:normal;font-stretch:normal;font-size:8px;font-family:sans-serif;-inkscape-font-specification:sans-serif;text-align:center;text-anchor:middle;color-interpolation:sRGB;fill:#262626;stroke:none;stroke-width:0.65266091;color-rendering:optimizeQuality;image-rendering:optimizeQuality;text-rendering:geometricPrecision"
     id="text244">4</text>
  <text
     x="118.48994"
     xml:space="preserve"
     y="234.39725"
     style="font-style:normal;font-variant:normal;font-weight:normal;font-stretch:normal;font-size:8px;font-family:sans-serif;-inkscape-font-specification:sans-serif;text-align:center;text-anchor:middle;color-interpolation:sRGB;fill:#262626;stroke:none;stroke-width:0.65266091;color-rendering:optimizeQuality;image-rendering:optimizeQuality;text-rendering:geometricPrecision"
     id="text248">6</text>
  <text
     x="146.84929"
     xml:space="preserve"
     y="234.39725"
     style="font-style:normal;font-variant:normal;font-weight:normal;font-stretch:normal;font-size:8px;font-family:sans-serif;-inkscape-font-specification:sans-serif;text-align:center;text-anchor:middle;color-interpolation:sRGB;fill:#262626;stroke:none;stroke-width:0.65266091;color-rendering:optimizeQuality;image-rendering:optimizeQuality;text-rendering:geometricPrecision"
     id="text252">8</text>
  <text
     x="174.94803"
     xml:space="preserve"
     y="234.39725"
     style="font-style:normal;font-variant:normal;font-weight:normal;font-stretch:normal;font-size:8px;font-family:sans-serif;-inkscape-font-specification:sans-serif;text-align:center;text-anchor:middle;color-interpolation:sRGB;fill:#262626;stroke:none;stroke-width:0.65266091;color-rendering:optimizeQuality;image-rendering:optimizeQuality;text-rendering:geometricPrecision"
     id="text256">10</text>
  <text
     x="203.18883"
     xml:space="preserve"
     y="234.39725"
     style="font-style:normal;font-variant:normal;font-weight:normal;font-stretch:normal;font-size:8px;font-family:sans-serif;-inkscape-font-specification:sans-serif;text-align:center;text-anchor:middle;color-interpolation:sRGB;fill:#262626;stroke:none;stroke-width:0.65266091;color-rendering:optimizeQuality;image-rendering:optimizeQuality;text-rendering:geometricPrecision"
     id="text260">12</text>
  <text
     x="231.7337"
     xml:space="preserve"
     y="234.39725"
     style="font-style:normal;font-variant:normal;font-weight:normal;font-stretch:normal;font-size:8px;font-family:sans-serif;-inkscape-font-specification:sans-serif;text-align:center;text-anchor:middle;color-interpolation:sRGB;fill:#262626;stroke:none;stroke-width:0.65266091;color-rendering:optimizeQuality;image-rendering:optimizeQuality;text-rendering:geometricPrecision"
     id="text264">14</text>
  <text
     x="260.07965"
     xml:space="preserve"
     y="234.39725"
     style="font-style:normal;font-variant:normal;font-weight:normal;font-stretch:normal;font-size:8px;font-family:sans-serif;-inkscape-font-specification:sans-serif;text-align:center;text-anchor:middle;color-interpolation:sRGB;fill:#262626;stroke:none;stroke-width:0.65266091;color-rendering:optimizeQuality;image-rendering:optimizeQuality;text-rendering:geometricPrecision"
     id="text268">16</text>
  <text
     x="288.43143"
     xml:space="preserve"
     y="234.39725"
     style="font-style:normal;font-variant:normal;font-weight:normal;font-stretch:normal;font-size:8px;font-family:sans-serif;-inkscape-font-specification:sans-serif;text-align:center;text-anchor:middle;color-interpolation:sRGB;fill:#262626;stroke:none;stroke-width:0.65266091;color-rendering:optimizeQuality;image-rendering:optimizeQuality;text-rendering:geometricPrecision"
     id="text272">18</text>
  <g
     id="g288"
     style="color-interpolation:sRGB;fill:#262626;stroke:#262626;stroke-width:0.66670001;stroke-linejoin:round;color-rendering:optimizeQuality;image-rendering:optimizeQuality;text-rendering:geometricPrecision"
     transform="matrix(0.6526609,0,0,0.6526609,-13.307047,-17.663364)">
    <line
       id="line278"
       y1="374"
       x2="77.339996"
       x1="73"
       style="fill:none"
       y2="374" />
    <line
       id="line280"
       y1="338.25"
       x2="77.339996"
       x1="73"
       style="fill:none"
       y2="338.25" />
    <line
       id="line282"
       y1="302.5"
       x2="77.339996"
       x1="73"
       style="fill:none"
       y2="302.5" />
    <line
       id="line284"
       y1="266.75"
       x2="77.339996"
       x1="73"
       style="fill:none"
       y2="266.75" />
    <line
       id="line286"
       y1="231"
       x2="77.339996"
       x1="73"
       style="fill:none"
       y2="231" />
  </g>
  <text
     x="29.079391"
     xml:space="preserve"
     y="229.36879"
     style="font-style:normal;font-variant:normal;font-weight:normal;font-stretch:normal;font-size:8px;font-family:sans-serif;-inkscape-font-specification:sans-serif;text-align:end;text-anchor:end;color-interpolation:sRGB;fill:#262626;stroke:none;stroke-width:0.65266091;color-rendering:optimizeQuality;image-rendering:optimizeQuality;text-rendering:geometricPrecision"
     id="text290">-1</text>
  <text
     x="28.113148"
     xml:space="preserve"
     y="206.03616"
     style="font-style:normal;font-variant:normal;font-weight:normal;font-stretch:normal;font-size:8px;font-family:sans-serif;-inkscape-font-specification:sans-serif;text-align:end;text-anchor:end;color-interpolation:sRGB;fill:#262626;stroke:none;stroke-width:0.65266091;color-rendering:optimizeQuality;image-rendering:optimizeQuality;text-rendering:geometricPrecision"
     id="text294">-0.5</text>
  <text
     x="28.928972"
     xml:space="preserve"
     y="182.70354"
     style="font-style:normal;font-variant:normal;font-weight:normal;font-stretch:normal;font-size:8px;font-family:sans-serif;-inkscape-font-specification:sans-serif;text-align:end;text-anchor:end;color-interpolation:sRGB;fill:#262626;stroke:none;stroke-width:0.65266091;color-rendering:optimizeQuality;image-rendering:optimizeQuality;text-rendering:geometricPrecision"
     id="text298">0</text>
  <text
     x="28.412706"
     xml:space="preserve"
     y="159.37091"
     style="font-style:normal;font-variant:normal;font-weight:normal;font-stretch:normal;font-size:8px;font-family:sans-serif;-inkscape-font-specification:sans-serif;text-align:end;text-anchor:end;color-interpolation:sRGB;fill:#262626;stroke:none;stroke-width:0.65266091;color-rendering:optimizeQuality;image-rendering:optimizeQuality;text-rendering:geometricPrecision"
     id="text302">0.5</text>
  <text
     x="28.382114"
     xml:space="preserve"
     y="136.03827"
     style="font-style:normal;font-variant:normal;font-weight:normal;font-stretch:normal;font-size:8px;font-family:sans-serif;-inkscape-font-specification:sans-serif;text-align:end;text-anchor:end;color-interpolation:sRGB;fill:#262626;stroke:none;stroke-width:0.65266091;color-rendering:optimizeQuality;image-rendering:optimizeQuality;text-rendering:geometricPrecision"
     id="text306">1</text>
  <g
     id="g314"
     style="color-interpolation:sRGB;fill:#0072bd;stroke:#0072bd;stroke-width:0.66670001;stroke-linecap:butt;stroke-linejoin:round;color-rendering:optimizeQuality;image-rendering:optimizeQuality;text-rendering:geometricPrecision"
     transform="matrix(0.6526609,0,0,0.6526609,-13.307047,-17.663364)">
    <path
       inkscape:connector-curvature="0"
       id="path310"
       style="opacity:1;vector-effect:none;fill:none;fill-opacity:1;fill-rule:evenodd;stroke:#0072bd;stroke-width:1.53218925;stroke-linecap:butt;stroke-linejoin:miter;stroke-miterlimit:10;stroke-dasharray:none;stroke-dashoffset:0;stroke-opacity:1"
       d="m 73,302.4778 0.7245,-0.2233 0.7246,-0.0161 0.7245,-0.0473 0.7246,0.213 0.7245,0.1277 0.7245,0.1569 0.7246,0.1673 0.7245,0.153 0.7246,-0.01 0.7245,0.006 0.7245,0.0618 0.7246,0.1832 0.7245,0.0438 0.7246,0.1724 0.7245,0.2284 0.7246,0.0877 0.7245,-0.0156 0.7245,0.2063 0.7246,-0.1053 0.7245,-0.2892 0.7246,-0.4351 0.7245,-0.5414 0.7245,-0.6423 0.7246,-0.4213 0.7245,-0.1408 0.7246,0.0905 0.7245,0.2691 0.7245,0.5063 0.7246,0.6024 0.7245,0.6128 0.7246,0.8051 0.7245,0.5357 0.7246,0.4221 0.7245,-0.182 0.7245,-0.5624 0.7246,-0.888 0.7245,-0.7649 0.7246,-1.3626 0.7245,-0.6798 0.7245,-0.4942 0.7246,-0.3177 0.7245,-0.312 0.7246,0.3013 0.7245,0.1611 0.7245,-4e-4 0.7246,-0.2093 0.7245,0.0518 0.7246,-0.301 0.7245,-0.6088 0.7245,-0.3215 0.7246,0.0817 0.7245,-0.0726 0.7246,-0.0455 0.7245,0.0396 0.7245,0.1067 0.7246,-0.005 0.7245,0.1043 0.7246,0.3689 0.7245,0.6225 0.7246,0.3718 0.7245,0.3345 0.7245,0.4464 0.7246,0.6156 0.7245,0.6355 0.7246,0.926 0.7245,0.9516 0.7245,0.7404 0.7246,0.8228 0.7245,0.834 0.7246,0.4441 0.7245,0.375 0.7245,0.5888 0.7246,0.3307 0.7245,0.0229 0.7246,0.0741 0.7245,0.1977 0.7245,-0.2274 0.7246,-0.4207 0.7245,-0.0105 0.7246,0.2218 0.7245,-0.0581 0.7246,0.0824 0.7245,0.1248 0.7245,-0.1423 0.7246,-0.366 0.7245,-0.2606 0.7246,-0.0413 0.7245,-0.1033 0.7245,-0.1919 0.7246,-0.2808 0.7245,-0.2563 0.7246,-0.2667 0.7245,0.3226 0.7245,0.6597 0.7246,0.6217 0.7245,0.4176 0.7246,0.3241 0.7245,0.6362 0.7246,1.6319 0.7245,6.4385 0.7245,1.348 0.7246,-0.1083 0.7245,0.7738 0.7245,2.5652 0.7246,2.2397 0.7245,31.6723 0.7246,9.1644 0.7245,3.0419 0.7246,1.728 0.7245,1.3121 0.7245,0.0882 0.7246,-3.8233 0.7245,-2.7211 0.7246,-1.3054 0.7245,-0.7814 0.7245,-2.31 0.7246,-2.2366 0.7245,-0.438 0.7246,0.4486 0.7245,0.6542 0.7245,0.9426 0.7246,0.8517 0.7245,-0.1429 0.7246,-0.3063 0.7245,-1.5331 0.7245,-1.1264 0.7246,-2.4204 0.7245,-2.5754 0.7246,-2.196 0.7245,-2.3813 0.7246,-0.0268 0.7245,1.9672 0.7245,3.0139 0.7246,2.7457 0.7245,4.7378 0.7246,4.0987 0.7245,3.6944 0.7245,2.94 0.7246,2.8855 0.7245,-0.2928 0.7246,-2.1683 0.7245,-6.5308 0.7246,-20.3532 0.7245,-24.8526 0.7245,-23.446 0.7246,-12.0664 0.7245,-0.9729 0.7246,3.2135 0.7245,5.4134 0.7245,0.7092 0.7246,18.7423 0.7245,19.929 0.7246,14.1733 0.7245,10.0145 0.7245,5.1729 0.7246,2.8819 0.7245,0.6581 0.7246,0.2598 0.7245,0.2781 0.7245,0.3793 0.7246,0.1139 0.7245,-0.0337 0.7246,-0.0284 0.7245,-0.0467 0.7246,-0.002 0.7245,-0.0588 0.7245,-0.1287 0.7246,-0.3812 0.7245,-0.9379 0.7246,-2.4106 0.7245,-0.11 0.7245,-0.009 0.7246,0.8819 0.7245,0.7271 0.7246,-0.0624 0.7245,0.1528 0.7245,-0.9902 0.7246,-1.1081 0.7245,-0.0116 0.7246,-0.1208 0.7245,1.5477 0.7245,0.7964 0.7246,0.3624 0.7245,-6e-4 0.7246,-0.1425 0.7245,-0.2225 0.7246,-0.3463 0.7245,-0.4754 0.7245,-0.3503 0.7246,-0.2516 0.7245,-0.0948 0.7246,0.3398 0.7245,0.2696 0.7245,0.2255 0.7246,0.417 0.7245,0.3755 0.7246,0.1104 0.7245,0.0848 0.7245,0.002 0.7246,-0.0997 0.7245,-0.1788 0.7246,-0.0471 0.7245,-10e-5 0.7246,0.0146 0.7245,-0.0198 0.7245,0.0263 0.7246,0.0675 0.7245,0.155 0.7245,0.1097 0.7246,0.0684 0.7245,0.0291 0.7246,-0.002 0.7245,-0.0161 0.7245,-0.0226 0.7246,0.0118 0.7245,-0.0417 0.7246,-0.1252 0.7245,-0.1633 0.7246,-0.1535 0.7245,-0.2233 0.7245,0.005 0.7246,0.3181 0.7245,0.3108 0.7246,0.1483 0.7245,0.0883 0.7245,0.0154 0.7246,-0.0784 0.7245,-0.095 0.7246,-0.1232 0.7245,-0.053 0.7245,0.1206 0.7246,0.0593 0.7245,0.025 0.7246,0.0279 0.7245,0.0465 0.7246,0.0312 0.7245,0.0482 0.7245,-0.0203 0.7246,-0.1127 0.7245,-0.0509 0.7246,-0.1254 0.7245,-0.0275 0.7245,0.1279 0.7246,0.0997 0.7245,0.0519 0.7246,0.1543 0.7245,0.0516 0.7245,-0.0685 0.7246,-0.0603 0.7245,-0.0323 0.7246,0.0416 0.7245,0.0678 0.7245,0.0257 0.7246,0.007 0.7245,0.003 0.7246,-0.0223 0.7245,-0.005 0.7245,-0.009 0.7246,-0.0357 0.7245,-0.0688 0.7246,0.142 0.7245,0.1922 0.7246,-0.3388 0.7245,-1.5451 0.7245,0.564 0.7246,-2.3693 0.7245,-36.203 0.7246,-22.4003 0.7245,-0.0291 0.7245,1.9397 0.7246,0.4367 0.7245,-8.3403 0.7246,-1.4447 0.7245,-4.3438 0.7245,-9.946 0.7246,-5.681 0.7245,-5.5661 0.7246,-3.5449 0.7245,-2.5926 0.7246,-2.592 0.7245,-2.5161 0.7245,-1.3097 0.7246,-0.9807 0.7245,-0.8464 0.7246,-0.8503 0.7245,-0.8724 0.7245,-0.5024 0.7246,0.0305 0.7245,0.4618 0.7246,0.3862 0.7245,0.3524 0.7245,-0.0334 0.7246,-0.4415 0.7245,-0.6112 0.7246,0.1074 0.7245,-0.2289 0.7245,-0.6133 0.7246,-0.5961 0.7245,-0.4302 0.7246,-0.6274 0.7245,0.0611 0.7245,0.1805 0.7246,-0.1079 0.7245,-0.7071 0.7246,-0.578 0.7245,-0.5857 0.7246,-0.5977 0.7245,-0.4227 0.7245,-0.1888 0.7246,-0.1468 0.7245,-0.0463 0.7246,0.1263 0.7245,0.355 0.7245,0.6065 0.7246,0.7601 0.7245,1.0506 0.7246,1.2758 0.7245,1.1255 0.7245,0.7593 0.7246,0.4662 0.7245,-0.343 0.7246,-0.4773 0.7245,-0.4919 0.7246,-0.3679 0.7245,-0.5269 0.7245,-0.4624 0.7246,-0.2476 0.7245,-0.1628 0.7245,-0.1139 0.7246,0.1616 0.7246,0.2273 0.7245,0.2851 0.7245,0.5605 0.7246,0.9146 0.7245,1.1281 0.7245,1.3088 0.7246,1.1164 0.7245,0.9129 0.7246,0.6861 0.7245,0.565 0.7246,0.678 0.7245,0.6346 0.7245,0.2553 0.7246,-0.0749 0.7245,-0.1866 0.7246,-0.3311 0.7245,-0.5293 0.7245,-0.5708 0.7246,-0.575 0.7245,-0.6919 0.7245,-0.4961 0.7246,-0.1164 0.7245,0.1506 0.7246,0.2132 0.7245,0.4208 0.7246,0.2989 0.7245,0.1092 0.7246,-0.4326 0.7245,-0.7522 0.7245,-1.8371 0.7246,-1.9316 0.7245,-1.3518 0.7246,-0.5419 0.7245,0.8723 0.7245,1.6447 0.7246,1.766 0.7245,2.1723 0.7245,1.5812 0.7246,1.5929 0.7245,1.6338 0.7246,1.6699 0.7245,0.8985 0.7246,0.2949 0.7245,0.956 0.7246,1.4206 0.7245,1.725 0.7245,3.0408 0.7246,3.9115 0.7245,1.8695 0.7246,1.0132 0.7245,0.6023 0.7245,0.0474 0.7245,0.02 0.7246,-0.1085 0.7245,-0.1646 0.7246,0.1258 0.7245,0.2018 0.7246,0.3144 0.7245,3.866 0.7246,1.2962 0.7245,0.843 0.7245,0.5291 0.7246,6.3204 0.7245,2.2075 0.7246,1.8493 0.7245,1.5047 0.7245,1.1865 0.7246,1.1583 0.7245,1.3471 0.7245,1.995 0.7246,2.9479 0.7245,3.3261 0.7246,3.0479 0.7245,2.537 0.7246,2.517 0.7245,2.1703 0.7246,1.4538 0.7245,1.6346 0.7245,1.5554 0.7246,0.2821 0.7245,0.9533 0.7246,3.6956 0.7245,4.4315 0.7245,6.5931 0.7246,8.0314 0.7245,7.2755 0.7245,4.8782 0.7246,3.2332 0.7245,2.364 0.7246,1.4458 0.7245,0.6287 0.7246,-0.3004 0.7245,-1.0942 0.7246,-1.4612 0.7245,-1.3355 0.7245,-0.3899 0.7246,-0.1173 0.7245,0.5389 0.7246,1.2128 0.7245,0.8476 0.7245,0.2936 0.7245,0.3355 0.7246,0.0406 0.7245,-0.1682 0.7246,-0.3665 0.7245,-0.477 0.7246,-0.9095 0.7245,-1.0892 0.7246,-0.5912 0.7245,0.176 0.7245,0.6949 0.7246,1.0556 0.7245,0.5617 0.7246,0.5764 0.7245,1.0889 0.7245,0.652 0.7246,-0.9414 0.7245,-3.8833 0.7245,-5.6075 0.7246,-3.7519 0.7245,-1.3003 0.7246,0.6734 0.7245,1.9827 0.7246,-0.2306 0.7245,-1.3829 0.7246,-1.5387 0.7245,1.193 0.7245,-0.5306 0.7246,-2.5408 0.7245,-2.8416 0.7246,-4.168 0.7245,-8.8776 0.7245,-5.3325 0.7246,-5.7671 0.7245,-8.5151 0.7246,-9.5487 0.7245,-11.5146 0.7245,-14.267 0.7246,-11.1452 0.7245,-7.8759 0.7246,-3.6116 0.7245,-0.7587 0.7246,0.302 0.7245,0.3456 0.7245,-0.3579 0.7246,-0.3273 0.7245,-0.236 0.7246,-0.3746 0.7245,-0.0166 0.7245,0.1321 0.7246,0.2054 0.7245,0.2122 0.7246,-0.0263 0.7245,-0.1629 0.7245,-0.1773 0.7246,-0.0296 0.7245,0.004 0.7246,0.1139 0.7245,0.2036 0.7246,0.3269 0.7245,0.2165 0.7245,0.3415 0.7245,0.5466 0.7246,0.6302 0.7245,0.4249 0.7246,0.3864 0.7245,0.0892 0.7246,-0.109 0.7245,0.0283 0.7245,0.2402 0.7246,0.2171 0.7245,0.3357 0.7246,0.5712 0.7245,0.5662 0.7246,0.5288 0.7245,0.4949 0.7245,0.367 0.7246,-0.1049 0.7245,-0.5359 0.7246,-0.5951 0.7245,-0.6223 0.7246,-0.7159 0.7245,-0.3227 0.7245,-0.0392 0.7245,0.081 0.7246,0.1936 0.7245,0.2675 0.7246,0.2243 0.7245,0.2677 0.7246,0.3903 0.7245,0.3596 0.7245,0.1117 0.7246,-0.3541 0.7246,-0.4181 0.7245,-0.5541 0.7245,-0.3574 0.7246,-0.0434 0.7245,0.0492 0.7245,-0.1134 0.7246,-0.1454 0.7245,-0.217 0.7246,-0.1487 0.7245,-0.0496 0.7245,0.0393 0.7246,0.0922 0.7245,0.17 0.7246,0.2234 0.7245,0.1561 0.7246,0.008 0.7245,-0.0408 0.7245,-0.1225 0.7246,-0.2645 0.7245,-0.0704 0.7245,0.1703 0.7246,0.2436 0.7245,0.2731 0.7246,0.5941 0.7245,0.875 0.7245,1.0176 0.7246,1.1307 0.7245,1.3724 0.7246,0.6408 0.7245,-0.1557 0.7246,-0.972 0.7245,-0.7167 0.7245,-0.659 0.7246,-0.0285 0.7245,0.0406 0.7246,0.2809 0.7245,0.1413 0.7246,0.2943 0.7245,0.1207 0.7245,0.6415 0.7246,0.9061 0.7245,0.8586 0.7245,0.488 0.7246,0.6243 0.7245,0.5426 0.7246,0.3514 0.7245,-0.2028 0.7245,-0.487 0.7246,-1.2567 0.7246,-1.5642 0.7245,-1.2613 0.7245,-0.6475 0.7246,-0.2081 0.7245,-0.0705 0.7245,-0.1668 0.7246,-0.1172 0.7245,-0.0319 0.7246,-0.0659 0.7245,-0.0149 0.7245,0.097 0.7246,0.0304 0.7245,-0.2334 0.7246,-0.342 0.7245,-0.1068 0.7246,0.0582 0.7245,0.241 0.7245,0.2747 0.7246,0.0515 0.7245,0.1479 0.7245,0.2345 0.7246,0.0486 0.7245,0.1124 0.7246,0.3662 0.7245,0.4378 0.7246,0.5442 0.7245,0.6994" />
    <path
       inkscape:connector-curvature="0"
       id="path312"
       style="opacity:1;vector-effect:none;fill:none;fill-opacity:1;fill-rule:evenodd;stroke:#d95319;stroke-width:1.53218925;stroke-linecap:butt;stroke-linejoin:miter;stroke-miterlimit:10;stroke-dasharray:none;stroke-dashoffset:0;stroke-opacity:1"
       d="m 73,332.0618 0.7245,-0.0981 0.7246,-0.009 0.7245,-0.0269 0.7246,0.1249 0.7245,0.0662 0.7245,0.077 0.7246,0.077 0.7245,0.0663 0.7246,-0.004 0.7245,0.002 0.7245,0.0255 0.7246,0.0744 0.7245,0.017 0.7246,0.0662 0.7245,0.0841 0.7246,0.0307 0.7245,-0.005 0.7245,0.0713 0.7246,-0.0348 0.7245,-0.0978 0.7246,-0.1558 0.7245,-0.2095 0.7245,-0.2724 0.7246,-0.198 0.7245,-0.0704 0.7246,0.0461 0.7245,0.1344 0.7245,0.2419 0.7246,0.2653 0.7245,0.2452 0.7246,0.2919 0.7245,0.1695 0.7246,0.1221 0.7245,-0.0489 0.7245,-0.1575 0.7246,-0.2759 0.7245,-0.2757 0.7246,-0.5517 0.7245,-0.3362 0.7245,-0.2673 0.7246,-0.1833 0.7245,-0.1874 0.7246,0.1884 0.7245,0.0954 0.7245,-2e-4 0.7246,-0.1203 0.7245,0.0306 0.7246,-0.1755 0.7245,-0.3707 0.7245,-0.2142 0.7246,0.0568 0.7245,-0.0494 0.7246,-0.0312 0.7245,0.0272 0.7245,0.0723 0.7246,-0.003 0.7245,0.0688 0.7246,0.238 0.7245,0.3746 0.7246,0.2 0.7245,0.1689 0.7245,0.2124 0.7246,0.2703 0.7245,0.2491 0.7246,0.3223 0.7245,0.2746 0.7245,0.1737 0.7246,0.1626 0.7245,0.132 0.7246,0.0539 0.7245,0.0395 0.7245,0.0542 0.7246,0.0228 0.7245,10e-4 0.7246,0.005 0.7245,0.0126 0.7245,-0.0132 0.7246,-0.0311 0.7245,-10e-4 0.7246,0.0227 0.7245,-0.005 0.7246,0.008 0.7245,0.0124 0.7245,-0.0136 0.7246,-0.0394 0.7245,-0.0346 0.7246,-0.006 0.7245,-0.016 0.7245,-0.0315 0.7246,-0.0504 0.7245,-0.0513 0.7246,-0.0588 0.7245,0.0778 0.7245,0.1419 0.7246,0.1038 0.7245,0.0526 0.7246,0.0329 0.7245,0.0532 0.7246,0.0736 0.7245,-0.3343 0.7245,-0.5022 0.7246,0.0437 0.7245,-0.3 0.7245,-1.0581 0.7246,-1.1438 0.7245,-18.6249 0.7246,-18.5481 0.7245,-9.2809 0.7246,-7.2945 0.7245,-8.8801 0.7245,-9.0221 0.7246,-21.3305 0.7245,-2.0711 0.7246,-0.8418 0.7245,-0.4265 0.7245,-1.1413 0.7246,-0.7552 0.7245,-0.0982 0.7246,0.0967 0.7245,0.1594 0.7245,0.2645 0.7246,0.2875 0.7245,-0.0559 0.7246,-0.1142 0.7245,-0.5392 0.7245,-0.2754 0.7246,-0.4493 0.7245,-0.1381 0.7246,0.1269 0.7245,0.3322 0.7246,0.006 0.7245,-0.4095 0.7245,-0.3453 0.7246,0.0957 0.7245,0.8959 0.7246,2.257 0.7245,3.7686 0.7245,5.4249 0.7246,10.8227 0.7245,9.9236 0.7246,12.2748 0.7245,19.0626 0.7246,33.8213 0.7245,17.7716 0.7245,2.4374 0.7246,-12.6564 0.7245,-16.8681 0.7246,-10.3428 0.7245,-10.8735 0.7245,-0.9605 0.7246,-24.6912 0.7245,-8.9913 0.7246,0.015 0.7245,4.1708 0.7245,5.136 0.7246,5.0872 0.7245,2.1293 0.7246,1.0932 0.7245,1.3801 0.7245,2.5423 0.7246,2.3517 0.7245,0.9302 0.7246,0.4555 0.7245,0.6312 0.7246,0.0232 0.7245,0.6616 0.7245,1.1042 0.7246,2.3001 0.7245,3.3833 0.7246,5.4675 0.7245,0.1537 0.7245,0.0124 0.7246,-1.2784 0.7245,-1.2121 0.7246,0.1206 0.7245,-0.2912 0.7245,1.9991 0.7246,1.7189 0.7245,0.0152 0.7246,0.1607 0.7245,-2.0418 0.7245,-1.4374 0.7246,-0.8499 0.7245,0.002 0.7246,0.4061 0.7245,0.575 0.7246,0.7891 0.7245,0.923 0.7245,0.5758 0.7246,0.3792 0.7245,0.1357 0.7246,-0.4823 0.7245,-0.4284 0.7245,-0.3965 0.7246,-0.8145 0.7245,-0.9375 0.7246,-0.3935 0.7245,-0.3597 0.7245,-0.009 0.7246,0.52 0.7245,0.684 0.7246,0.1341 0.7245,2e-4 0.7246,-0.0409 0.7245,0.057 0.7245,-0.0744 0.7246,-0.2004 0.7245,-0.5119 0.7245,-0.4951 0.7246,-0.4597 0.7245,-0.3495 0.7246,0.0591 0.7245,0.3167 0.7245,0.2215 0.7246,-0.0867 0.7245,0.3491 0.7246,0.6957 0.7245,0.5496 0.7246,0.3971 0.7245,0.4947 0.7245,-0.01 0.7246,-0.6091 0.7245,-0.7941 0.7246,-0.6189 0.7245,-0.669 0.7245,-0.8636 0.7246,-0.6279 0.7245,-0.4365 0.7246,-0.444 0.7245,-0.1556 0.7245,0.3425 0.7246,0.2112 0.7245,0.1042 0.7246,0.1296 0.7245,0.25 0.7246,0.233 0.7245,0.5528 0.7245,0.8569 0.7246,0.5795 0.7245,0.1666 0.7246,0.3796 0.7245,0.067 0.7245,-0.3095 0.7246,-0.2994 0.7245,-0.1962 0.7246,-0.6988 0.7245,-0.8132 0.7245,-0.6703 0.7246,-0.2649 0.7245,-0.1213 0.7246,0.1485 0.7245,0.2839 0.7245,0.1493 0.7246,0.0473 0.7245,0.0219 0.7246,-0.1943 0.7245,-0.0334 0.7245,-0.0588 0.7246,-0.2199 0.7245,-0.3332 0.7246,0.5185 0.7245,1.3801 0.7246,1.7529 0.7245,2.4568 0.7245,-0.4269 0.7246,2.1666 0.7245,19.5849 0.7246,-0.7554 0.7245,-0.002 0.7245,0.1222 0.7246,0.0248 0.7245,-0.4556 0.7246,-0.1266 0.7245,-0.4017 0.7245,-1.1488 0.7246,-1.0103 0.7245,-1.2211 0.7246,-0.9604 0.7245,-0.8067 0.7246,-0.9011 0.7245,-0.9869 0.7245,-0.5829 0.7246,-0.4693 0.7245,-0.4309 0.7246,-0.4592 0.7245,-0.5024 0.7245,-0.3105 0.7246,0.0197 0.7245,0.2988 0.7246,0.2405 0.7245,0.2132 0.7245,-0.0197 0.7246,-0.2631 0.7245,-0.3851 0.7246,0.073 0.7245,-0.1536 0.7245,-0.4268 0.7246,-0.4531 0.7245,-0.3576 0.7246,-0.5589 0.7245,0.0609 0.7245,0.1766 0.7246,-0.1021 0.7245,-0.6866 0.7246,-0.6553 0.7245,-0.7639 0.7246,-0.9246 0.7245,-0.8157 0.7245,-0.4472 0.7246,-0.3882 0.7245,-0.1358 0.7246,0.3787 0.7245,0.9144 0.7245,1.169 0.7246,1.0674 0.7245,1.1306 0.7246,1.0372 0.7245,0.7 0.7245,0.3887 0.7246,0.2132 0.7245,-0.1477 0.7246,-0.2235 0.7245,-0.255 0.7246,-0.2121 0.7245,-0.3305 0.7245,-0.3283 0.7246,-0.1972 0.7245,-0.1384 0.7245,-0.1016 0.7246,0.1493 0.7246,0.2002 0.7245,0.236 0.7245,0.431 0.7246,0.6081 0.7245,0.6017 0.7245,0.5461 0.7246,0.3548 0.7245,0.2329 0.7246,0.1466 0.7245,0.1063 0.7246,0.1151 0.7245,0.093 0.7245,0.0325 0.7246,-0.009 0.7245,-0.0257 0.7246,-0.0514 0.7245,-0.0956 0.7245,-0.1254 0.7246,-0.1524 0.7245,-0.2188 0.7245,-0.1913 0.7246,-0.0517 0.7245,0.0696 0.7246,0.0954 0.7245,0.1801 0.7246,0.1151 0.7245,0.0394 0.7246,-0.1549 0.7245,-0.312 0.7245,-0.9561 0.7246,-1.7327 0.7245,-2.5717 0.7246,-3.9574 0.7245,-5.0669 0.7245,-4.1696 0.7246,-3.4351 0.7245,-3.6448 0.7245,-2.3319 0.7246,-2.2036 0.7245,-2.1278 0.7246,-2.0543 0.7245,-1.0462 0.7246,-0.3362 0.7245,-1.091 0.7246,-1.5697 0.7245,-1.8087 0.7245,-2.9939 0.7246,-3.4428 0.7245,-1.4516 0.7246,-0.7518 0.7245,-0.4367 0.7245,-0.034 0.7245,-0.0144 0.7246,0.0789 0.7245,0.1213 0.7246,-0.0942 0.7245,-0.1514 0.7246,-0.235 0.7245,-2.8569 0.7246,-0.7509 0.7245,-0.4643 0.7245,-0.2808 0.7246,-3.2859 0.7245,-0.7694 0.7246,-0.5849 0.7245,-0.4293 0.7245,-0.3099 0.7246,-0.2811 0.7245,-0.3016 0.7245,-0.401 0.7246,-0.4873 0.7245,-0.3761 0.7246,-0.1762 0.7245,-0.0255 0.7246,0.0717 0.7245,0.1469 0.7246,0.1474 0.7245,0.2014 0.7245,0.2344 0.7246,0.0501 0.7245,0.1702 0.7246,0.7284 0.7245,1.2435 0.7245,2.5195 0.7246,4.4535 0.7245,5.9494 0.7245,5.7621 0.7246,5.2757 0.7245,5.4058 0.7246,5.3302 0.7245,5.5743 0.7246,5.1168 0.7245,4.7907 0.7246,3.5466 0.7245,2.3333 0.7245,0.5579 0.7246,0.1613 0.7245,-0.7314 0.7246,-1.7877 0.7245,-1.5525 0.7245,-0.6606 0.7245,-0.8246 0.7246,-0.1152 0.7245,0.4808 0.7246,0.9442 0.7245,1.028 0.7246,1.6473 0.7245,1.5213 0.7246,0.6643 0.7245,-0.1817 0.7245,-0.7478 0.7246,-1.2985 0.7245,-0.8818 0.7246,-1.0713 0.7245,-2.5924 0.7245,-4.0979 0.7246,-5.5164 0.7245,-7.2695 0.7245,-5.7835 0.7246,-2.8392 0.7245,-0.8604 0.7246,0.4305 0.7245,1.3214 0.7246,-0.1708 0.7245,-1.0127 0.7246,-1.0464 0.7245,0.7507 0.7245,-0.3648 0.7246,-1.69 0.7245,-1.6013 0.7246,-1.9914 0.7245,-3.3106 0.7245,-1.084 0.7246,-0.7792 0.7245,-0.5214 0.7246,0.4241 0.7245,1.8466 0.7245,4.5129 0.7246,6.4771 0.7245,7.7472 0.7246,6.9751 0.7245,4.6451 0.7246,4.733 0.7245,1.0742 0.7245,-0.9587 0.7246,-1.0778 0.7245,-1.0139 0.7246,-2.2582 0.7245,-1.6332 0.7245,-1.3763 0.7246,-1.0897 0.7245,-0.8077 0.7246,0.0826 0.7245,0.5356 0.7245,0.6945 0.7246,0.1528 0.7245,-0.0227 0.7246,-0.6284 0.7245,-0.8514 0.7246,-1.0311 0.7245,-0.5221 0.7245,-0.7431 0.7245,-1.0231 0.7246,-0.9792 0.7245,-0.5655 0.7246,-0.477 0.7245,-0.1033 0.7246,0.1263 0.7245,-0.034 0.7245,-0.2903 0.7246,-0.2514 0.7245,-0.377 0.7246,-0.6065 0.7245,-0.5463 0.7246,-0.4706 0.7245,-0.412 0.7245,-0.2884 0.7246,0.0795 0.7245,0.4202 0.7246,0.5151 0.7245,0.6071 0.7246,0.8088 0.7245,0.4501 0.7245,0.0619 0.7245,-0.1303 0.7246,-0.3011 0.7245,-0.3843 0.7246,-0.2925 0.7245,-0.3266 0.7246,-0.4417 0.7245,-0.3672 0.7245,-0.1054 0.7246,0.3307 0.7246,0.4343 0.7245,0.6583 0.7245,0.5268 0.7246,0.077 0.7245,-0.0892 0.7245,0.199 0.7246,0.278 0.7245,0.4667 0.7246,0.3999 0.7245,0.1655 0.7245,-0.1427 0.7246,-0.2988 0.7245,-0.4606 0.7246,-0.48 0.7245,-0.274 0.7246,-0.0125 0.7245,0.0654 0.7245,0.2028 0.7246,0.4812 0.7245,0.1625 0.7245,-0.4232 0.7246,-0.4817 0.7245,-0.4388 0.7246,-0.8084 0.7245,-0.8955 0.7245,-0.7879 0.7246,-0.6955 0.7245,-0.6895 0.7246,-0.2607 0.7245,0.0594 0.7246,0.3926 0.7245,0.3486 0.7245,0.3728 0.7246,0.0189 0.7245,-0.0273 0.7246,-0.1902 0.7245,-0.0904 0.7246,-0.1855 0.7245,-0.0721 0.7245,-0.38 0.7246,-0.4682 0.7245,-0.3727 0.7245,-0.1838 0.7246,-0.2214 0.7245,-0.176 0.7246,-0.1063 0.7245,0.0595 0.7245,0.154 0.7246,0.4506 0.7246,0.7475 0.7245,0.894 0.7245,0.6998 0.7246,0.31 0.7245,0.1204 0.7245,0.2995 0.7246,0.2468 0.7245,0.0765 0.7246,0.162 0.7245,0.0401 0.7245,-0.2617 0.7246,-0.068 0.7245,0.4986 0.7246,1.0252 0.7245,0.9958 0.7246,0.9957 0.7245,1.2326 0.7245,0.8012 0.7246,0.1237 0.7245,0.3617 0.7245,0.5393 0.7246,0.1013 0.7245,0.2388 0.7246,0.7596 0.7245,0.7919 0.7246,0.8789 0.7245,1.0124" />
  </g>
  <text
     id="text4731"
     y="248.58163"
     x="167.44066"
     style="font-style:normal;font-variant:normal;font-weight:normal;font-stretch:normal;font-size:10px;line-height:125%;font-family:sans-serif;-inkscape-font-specification:sans-serif;text-align:center;letter-spacing:0px;word-spacing:0px;writing-mode:lr-tb;text-anchor:middle;display:inline;color-interpolation:sRGB;fill:#000000;fill-opacity:1;stroke:none;stroke-width:1px;stroke-linecap:butt;stroke-linejoin:miter;stroke-miterlimit:10;stroke-dasharray:none;stroke-dashoffset:0;stroke-opacity:1;color-rendering:auto;image-rendering:auto;shape-rendering:auto;text-rendering:auto"
     xml:space="preserve"><tspan
       y="248.58163"
       x="167.44066"
       id="tspan4729"
       sodipodi:role="line">Time (sec)</tspan></text>
  <text
     id="text5951"
     y="8.1530437"
     x="-80.152695"
     style="font-style:normal;font-variant:normal;font-weight:normal;font-stretch:normal;font-size:11.32055569px;line-height:0%;font-family:sans-serif;-inkscape-font-specification:'sans-serif, Normal';text-align:start;letter-spacing:0px;word-spacing:0px;writing-mode:lr-tb;text-anchor:start;display:inline;color-interpolation:sRGB;fill:#000000;fill-opacity:1;stroke:none;stroke-width:0.94337964px;stroke-linecap:butt;stroke-linejoin:miter;stroke-miterlimit:10;stroke-dasharray:none;stroke-dashoffset:0;stroke-opacity:1;color-rendering:auto;image-rendering:auto;shape-rendering:auto;text-rendering:auto"
     xml:space="preserve"
     transform="rotate(-90)"><tspan
       y="8.1530437"
       x="-80.152695"
       id="tspan5949"
       sodipodi:role="line"
       style="font-size:10.6130209px;line-height:1.25;stroke-width:0.94337964px">u<tspan
   id="tspan6826"
   style="font-size:64.99999762%;baseline-shift:sub">0</tspan> (m/s)</tspan></text>
  <g
     id="g1821"
     transform="matrix(0.77462321,0,0,0.77462321,276.2991,-34.932865)">
    <rect
       style="color:#000000;font-style:normal;font-weight:normal;font-size:12px;font-family:Dialog;clip-rule:nonzero;display:inline;overflow:visible;visibility:visible;opacity:1;isolation:auto;mix-blend-mode:normal;color-interpolation:sRGB;color-interpolation-filters:sRGB;solid-color:#000000;solid-opacity:1;vector-effect:none;fill:#ffffff;fill-opacity:1;fill-rule:nonzero;stroke:#000000;stroke-width:0.5;stroke-linecap:butt;stroke-linejoin:miter;stroke-miterlimit:10;stroke-dasharray:none;stroke-dashoffset:0;stroke-opacity:1;marker:none;marker-start:none;marker-mid:none;marker-end:none;color-rendering:auto;image-rendering:auto;shape-rendering:auto;text-rendering:auto;enable-background:accumulate"
       id="rect1756"
       width="55.273159"
       height="32.11401"
       x="-6.8463926"
       y="291.51581"
       ry="0.22411899" />
    <text
       id="text5347"
       y="317.89178"
       x="26.65868"
       style="font-style:normal;font-variant:normal;font-weight:normal;font-stretch:normal;font-size:11.32055569px;line-height:0%;font-family:sans-serif;-inkscape-font-specification:'sans-serif, Normal';text-align:start;letter-spacing:0px;word-spacing:0px;writing-mode:lr-tb;text-anchor:start;display:inline;color-interpolation:sRGB;fill:#000000;fill-opacity:1;stroke:none;stroke-width:0.94337964px;stroke-linecap:butt;stroke-linejoin:miter;stroke-miterlimit:10;stroke-dasharray:none;stroke-dashoffset:0;stroke-opacity:1;color-rendering:auto;image-rendering:auto;shape-rendering:auto;text-rendering:auto"
       xml:space="preserve"><tspan
         y="317.89178"
         x="26.65868"
         id="tspan5349"
         sodipodi:role="line"
         style="font-size:10.6130209px;line-height:1.25;stroke-width:0.94337964px">bh<tspan
   style="font-size:64.99999762%;baseline-shift:sub"
   id="tspan7145">y</tspan></tspan></text>
    <text
       xml:space="preserve"
       style="font-style:normal;font-variant:normal;font-weight:normal;font-stretch:normal;font-size:11.32055569px;line-height:0%;font-family:sans-serif;-inkscape-font-specification:'sans-serif, Normal';text-align:start;letter-spacing:0px;word-spacing:0px;writing-mode:lr-tb;text-anchor:start;display:inline;color-interpolation:sRGB;fill:#000000;fill-opacity:1;stroke:none;stroke-width:0.94337964px;stroke-linecap:butt;stroke-linejoin:miter;stroke-miterlimit:10;stroke-dasharray:none;stroke-dashoffset:0;stroke-opacity:1;color-rendering:auto;image-rendering:auto;shape-rendering:auto;text-rendering:auto"
       x="26.658684"
       y="304.6828"
       id="text7151"><tspan
         style="font-size:10.6130209px;line-height:1.25;stroke-width:0.94337964px"
         sodipodi:role="line"
         id="tspan7149"
         x="26.658684"
         y="304.6828">bh<tspan
   id="tspan7147"
   style="font-size:64.99999762%;baseline-shift:sub">x</tspan></tspan></text>
    <path
       style="font-style:normal;font-weight:normal;font-size:12px;font-family:Dialog;display:inline;opacity:1;color-interpolation:sRGB;vector-effect:none;fill:none;fill-opacity:1;fill-rule:evenodd;stroke:#0072bd;stroke-width:1;stroke-linecap:butt;stroke-linejoin:miter;stroke-miterlimit:10;stroke-dasharray:none;stroke-dashoffset:0;stroke-opacity:1;color-rendering:auto;image-rendering:auto;shape-rendering:auto;text-rendering:auto"
       d="M 1.8139374,300.31628 H 22.341253"
       id="path1738"
       inkscape:connector-curvature="0"
       sodipodi:nodetypes="cc" />
    <path
       sodipodi:nodetypes="cc"
       inkscape:connector-curvature="0"
       id="path1758"
       d="M 1.8139374,314.31628 H 22.341253"
       style="font-style:normal;font-weight:normal;font-size:12px;font-family:Dialog;display:inline;opacity:1;color-interpolation:sRGB;vector-effect:none;fill:none;fill-opacity:1;fill-rule:evenodd;stroke:#d95319;stroke-width:1;stroke-linecap:butt;stroke-linejoin:miter;stroke-miterlimit:10;stroke-dasharray:none;stroke-dashoffset:0;stroke-opacity:1;color-rendering:auto;image-rendering:auto;shape-rendering:auto;text-rendering:auto" />
  </g>
</svg>
